<?xml version="1.0" encoding="utf-8" standalone="no"?>
<!DOCTYPE svg PUBLIC "-//W3C//DTD SVG 1.1//EN"
  "http://www.w3.org/Graphics/SVG/1.1/DTD/svg11.dtd">
<!-- Created with matplotlib (https://matplotlib.org/) -->
<svg height="345.6pt" version="1.1" viewBox="0 0 460.8 345.6" width="460.8pt" xmlns="http://www.w3.org/2000/svg" xmlns:xlink="http://www.w3.org/1999/xlink">
 <metadata>
  <rdf:RDF xmlns:cc="http://creativecommons.org/ns#" xmlns:dc="http://purl.org/dc/elements/1.1/" xmlns:rdf="http://www.w3.org/1999/02/22-rdf-syntax-ns#">
   <cc:Work>
    <dc:type rdf:resource="http://purl.org/dc/dcmitype/StillImage"/>
    <dc:date>2022-01-03T14:39:48.627900</dc:date>
    <dc:format>image/svg+xml</dc:format>
    <dc:creator>
     <cc:Agent>
      <dc:title>Matplotlib v3.3.1, https://matplotlib.org/</dc:title>
     </cc:Agent>
    </dc:creator>
   </cc:Work>
  </rdf:RDF>
 </metadata>
 <defs>
  <style type="text/css">*{stroke-linecap:butt;stroke-linejoin:round;}</style>
 </defs>
 <g id="figure_1">
  <g id="patch_1">
   <path d="M 0 345.6 
L 460.8 345.6 
L 460.8 0 
L 0 0 
z
" style="fill:#ffffff;"/>
  </g>
  <g id="axes_1">
   <g id="patch_2">
    <path d="M 57.6 307.584 
L 414.72 307.584 
L 414.72 41.472 
L 57.6 41.472 
z
" style="fill:#ffffff;"/>
   </g>
   <g id="matplotlib.axis_1">
    <g id="xtick_1">
     <g id="line2d_1">
      <defs>
       <path d="M 0 0 
L 0 3.5 
" id="m15609478ba" style="stroke:#000000;stroke-width:0.8;"/>
      </defs>
      <g>
       <use style="stroke:#000000;stroke-width:0.8;" x="57.6" xlink:href="#m15609478ba" y="307.584"/>
      </g>
     </g>
     <g id="text_1">
      <!-- 0 -->
      <g transform="translate(54.41875 322.182437)scale(0.1 -0.1)">
       <defs>
        <path d="M 31.78125 66.40625 
Q 24.171875 66.40625 20.328125 58.90625 
Q 16.5 51.421875 16.5 36.375 
Q 16.5 21.390625 20.328125 13.890625 
Q 24.171875 6.390625 31.78125 6.390625 
Q 39.453125 6.390625 43.28125 13.890625 
Q 47.125 21.390625 47.125 36.375 
Q 47.125 51.421875 43.28125 58.90625 
Q 39.453125 66.40625 31.78125 66.40625 
z
M 31.78125 74.21875 
Q 44.046875 74.21875 50.515625 64.515625 
Q 56.984375 54.828125 56.984375 36.375 
Q 56.984375 17.96875 50.515625 8.265625 
Q 44.046875 -1.421875 31.78125 -1.421875 
Q 19.53125 -1.421875 13.0625 8.265625 
Q 6.59375 17.96875 6.59375 36.375 
Q 6.59375 54.828125 13.0625 64.515625 
Q 19.53125 74.21875 31.78125 74.21875 
z
" id="DejaVuSans-48"/>
       </defs>
       <use xlink:href="#DejaVuSans-48"/>
      </g>
     </g>
    </g>
    <g id="xtick_2">
     <g id="line2d_2">
      <g>
       <use style="stroke:#000000;stroke-width:0.8;" x="129.024" xlink:href="#m15609478ba" y="307.584"/>
      </g>
     </g>
     <g id="text_2">
      <!-- 1 -->
      <g transform="translate(125.84275 322.182437)scale(0.1 -0.1)">
       <defs>
        <path d="M 12.40625 8.296875 
L 28.515625 8.296875 
L 28.515625 63.921875 
L 10.984375 60.40625 
L 10.984375 69.390625 
L 28.421875 72.90625 
L 38.28125 72.90625 
L 38.28125 8.296875 
L 54.390625 8.296875 
L 54.390625 0 
L 12.40625 0 
z
" id="DejaVuSans-49"/>
       </defs>
       <use xlink:href="#DejaVuSans-49"/>
      </g>
     </g>
    </g>
    <g id="xtick_3">
     <g id="line2d_3">
      <g>
       <use style="stroke:#000000;stroke-width:0.8;" x="200.448" xlink:href="#m15609478ba" y="307.584"/>
      </g>
     </g>
     <g id="text_3">
      <!-- 2 -->
      <g transform="translate(197.26675 322.182437)scale(0.1 -0.1)">
       <defs>
        <path d="M 19.1875 8.296875 
L 53.609375 8.296875 
L 53.609375 0 
L 7.328125 0 
L 7.328125 8.296875 
Q 12.9375 14.109375 22.625 23.890625 
Q 32.328125 33.6875 34.8125 36.53125 
Q 39.546875 41.84375 41.421875 45.53125 
Q 43.3125 49.21875 43.3125 52.78125 
Q 43.3125 58.59375 39.234375 62.25 
Q 35.15625 65.921875 28.609375 65.921875 
Q 23.96875 65.921875 18.8125 64.3125 
Q 13.671875 62.703125 7.8125 59.421875 
L 7.8125 69.390625 
Q 13.765625 71.78125 18.9375 73 
Q 24.125 74.21875 28.421875 74.21875 
Q 39.75 74.21875 46.484375 68.546875 
Q 53.21875 62.890625 53.21875 53.421875 
Q 53.21875 48.921875 51.53125 44.890625 
Q 49.859375 40.875 45.40625 35.40625 
Q 44.1875 33.984375 37.640625 27.21875 
Q 31.109375 20.453125 19.1875 8.296875 
z
" id="DejaVuSans-50"/>
       </defs>
       <use xlink:href="#DejaVuSans-50"/>
      </g>
     </g>
    </g>
    <g id="xtick_4">
     <g id="line2d_4">
      <g>
       <use style="stroke:#000000;stroke-width:0.8;" x="271.872" xlink:href="#m15609478ba" y="307.584"/>
      </g>
     </g>
     <g id="text_4">
      <!-- 3 -->
      <g transform="translate(268.69075 322.182437)scale(0.1 -0.1)">
       <defs>
        <path d="M 40.578125 39.3125 
Q 47.65625 37.796875 51.625 33 
Q 55.609375 28.21875 55.609375 21.1875 
Q 55.609375 10.40625 48.1875 4.484375 
Q 40.765625 -1.421875 27.09375 -1.421875 
Q 22.515625 -1.421875 17.65625 -0.515625 
Q 12.796875 0.390625 7.625 2.203125 
L 7.625 11.71875 
Q 11.71875 9.328125 16.59375 8.109375 
Q 21.484375 6.890625 26.8125 6.890625 
Q 36.078125 6.890625 40.9375 10.546875 
Q 45.796875 14.203125 45.796875 21.1875 
Q 45.796875 27.640625 41.28125 31.265625 
Q 36.765625 34.90625 28.71875 34.90625 
L 20.21875 34.90625 
L 20.21875 43.015625 
L 29.109375 43.015625 
Q 36.375 43.015625 40.234375 45.921875 
Q 44.09375 48.828125 44.09375 54.296875 
Q 44.09375 59.90625 40.109375 62.90625 
Q 36.140625 65.921875 28.71875 65.921875 
Q 24.65625 65.921875 20.015625 65.03125 
Q 15.375 64.15625 9.8125 62.3125 
L 9.8125 71.09375 
Q 15.4375 72.65625 20.34375 73.4375 
Q 25.25 74.21875 29.59375 74.21875 
Q 40.828125 74.21875 47.359375 69.109375 
Q 53.90625 64.015625 53.90625 55.328125 
Q 53.90625 49.265625 50.4375 45.09375 
Q 46.96875 40.921875 40.578125 39.3125 
z
" id="DejaVuSans-51"/>
       </defs>
       <use xlink:href="#DejaVuSans-51"/>
      </g>
     </g>
    </g>
    <g id="xtick_5">
     <g id="line2d_5">
      <g>
       <use style="stroke:#000000;stroke-width:0.8;" x="343.296" xlink:href="#m15609478ba" y="307.584"/>
      </g>
     </g>
     <g id="text_5">
      <!-- 4 -->
      <g transform="translate(340.11475 322.182437)scale(0.1 -0.1)">
       <defs>
        <path d="M 37.796875 64.3125 
L 12.890625 25.390625 
L 37.796875 25.390625 
z
M 35.203125 72.90625 
L 47.609375 72.90625 
L 47.609375 25.390625 
L 58.015625 25.390625 
L 58.015625 17.1875 
L 47.609375 17.1875 
L 47.609375 0 
L 37.796875 0 
L 37.796875 17.1875 
L 4.890625 17.1875 
L 4.890625 26.703125 
z
" id="DejaVuSans-52"/>
       </defs>
       <use xlink:href="#DejaVuSans-52"/>
      </g>
     </g>
    </g>
    <g id="xtick_6">
     <g id="line2d_6">
      <g>
       <use style="stroke:#000000;stroke-width:0.8;" x="414.72" xlink:href="#m15609478ba" y="307.584"/>
      </g>
     </g>
     <g id="text_6">
      <!-- 5 -->
      <g transform="translate(411.53875 322.182437)scale(0.1 -0.1)">
       <defs>
        <path d="M 10.796875 72.90625 
L 49.515625 72.90625 
L 49.515625 64.59375 
L 19.828125 64.59375 
L 19.828125 46.734375 
Q 21.96875 47.46875 24.109375 47.828125 
Q 26.265625 48.1875 28.421875 48.1875 
Q 40.625 48.1875 47.75 41.5 
Q 54.890625 34.8125 54.890625 23.390625 
Q 54.890625 11.625 47.5625 5.09375 
Q 40.234375 -1.421875 26.90625 -1.421875 
Q 22.3125 -1.421875 17.546875 -0.640625 
Q 12.796875 0.140625 7.71875 1.703125 
L 7.71875 11.625 
Q 12.109375 9.234375 16.796875 8.0625 
Q 21.484375 6.890625 26.703125 6.890625 
Q 35.15625 6.890625 40.078125 11.328125 
Q 45.015625 15.765625 45.015625 23.390625 
Q 45.015625 31 40.078125 35.4375 
Q 35.15625 39.890625 26.703125 39.890625 
Q 22.75 39.890625 18.8125 39.015625 
Q 14.890625 38.140625 10.796875 36.28125 
z
" id="DejaVuSans-53"/>
       </defs>
       <use xlink:href="#DejaVuSans-53"/>
      </g>
     </g>
    </g>
    <g id="text_7">
     <!-- t/s -->
     <g transform="translate(229.910781 335.860562)scale(0.1 -0.1)">
      <defs>
       <path d="M 18.3125 70.21875 
L 18.3125 54.6875 
L 36.8125 54.6875 
L 36.8125 47.703125 
L 18.3125 47.703125 
L 18.3125 18.015625 
Q 18.3125 11.328125 20.140625 9.421875 
Q 21.96875 7.515625 27.59375 7.515625 
L 36.8125 7.515625 
L 36.8125 0 
L 27.59375 0 
Q 17.1875 0 13.234375 3.875 
Q 9.28125 7.765625 9.28125 18.015625 
L 9.28125 47.703125 
L 2.6875 47.703125 
L 2.6875 54.6875 
L 9.28125 54.6875 
L 9.28125 70.21875 
z
" id="DejaVuSans-116"/>
       <path d="M 25.390625 72.90625 
L 33.6875 72.90625 
L 8.296875 -9.28125 
L 0 -9.28125 
z
" id="DejaVuSans-47"/>
       <path d="M 44.28125 53.078125 
L 44.28125 44.578125 
Q 40.484375 46.53125 36.375 47.5 
Q 32.28125 48.484375 27.875 48.484375 
Q 21.1875 48.484375 17.84375 46.4375 
Q 14.5 44.390625 14.5 40.28125 
Q 14.5 37.15625 16.890625 35.375 
Q 19.28125 33.59375 26.515625 31.984375 
L 29.59375 31.296875 
Q 39.15625 29.25 43.1875 25.515625 
Q 47.21875 21.78125 47.21875 15.09375 
Q 47.21875 7.46875 41.1875 3.015625 
Q 35.15625 -1.421875 24.609375 -1.421875 
Q 20.21875 -1.421875 15.453125 -0.5625 
Q 10.6875 0.296875 5.421875 2 
L 5.421875 11.28125 
Q 10.40625 8.6875 15.234375 7.390625 
Q 20.0625 6.109375 24.8125 6.109375 
Q 31.15625 6.109375 34.5625 8.28125 
Q 37.984375 10.453125 37.984375 14.40625 
Q 37.984375 18.0625 35.515625 20.015625 
Q 33.0625 21.96875 24.703125 23.78125 
L 21.578125 24.515625 
Q 13.234375 26.265625 9.515625 29.90625 
Q 5.8125 33.546875 5.8125 39.890625 
Q 5.8125 47.609375 11.28125 51.796875 
Q 16.75 56 26.8125 56 
Q 31.78125 56 36.171875 55.265625 
Q 40.578125 54.546875 44.28125 53.078125 
z
" id="DejaVuSans-115"/>
      </defs>
      <use xlink:href="#DejaVuSans-116"/>
      <use x="39.208984" xlink:href="#DejaVuSans-47"/>
      <use x="72.900391" xlink:href="#DejaVuSans-115"/>
     </g>
    </g>
   </g>
   <g id="matplotlib.axis_2">
    <g id="ytick_1">
     <g id="line2d_7">
      <defs>
       <path d="M 0 0 
L -3.5 0 
" id="ma562d61c6b" style="stroke:#000000;stroke-width:0.8;"/>
      </defs>
      <g>
       <use style="stroke:#000000;stroke-width:0.8;" x="57.6" xlink:href="#ma562d61c6b" y="280.9728"/>
      </g>
     </g>
     <g id="text_8">
      <!-- -2 -->
      <g transform="translate(40.629688 284.772019)scale(0.1 -0.1)">
       <defs>
        <path d="M 4.890625 31.390625 
L 31.203125 31.390625 
L 31.203125 23.390625 
L 4.890625 23.390625 
z
" id="DejaVuSans-45"/>
       </defs>
       <use xlink:href="#DejaVuSans-45"/>
       <use x="36.083984" xlink:href="#DejaVuSans-50"/>
      </g>
     </g>
    </g>
    <g id="ytick_2">
     <g id="line2d_8">
      <g>
       <use style="stroke:#000000;stroke-width:0.8;" x="57.6" xlink:href="#ma562d61c6b" y="227.7504"/>
      </g>
     </g>
     <g id="text_9">
      <!-- -1 -->
      <g transform="translate(40.629688 231.549619)scale(0.1 -0.1)">
       <use xlink:href="#DejaVuSans-45"/>
       <use x="36.083984" xlink:href="#DejaVuSans-49"/>
      </g>
     </g>
    </g>
    <g id="ytick_3">
     <g id="line2d_9">
      <g>
       <use style="stroke:#000000;stroke-width:0.8;" x="57.6" xlink:href="#ma562d61c6b" y="174.528"/>
      </g>
     </g>
     <g id="text_10">
      <!-- 0 -->
      <g transform="translate(44.2375 178.327219)scale(0.1 -0.1)">
       <use xlink:href="#DejaVuSans-48"/>
      </g>
     </g>
    </g>
    <g id="ytick_4">
     <g id="line2d_10">
      <g>
       <use style="stroke:#000000;stroke-width:0.8;" x="57.6" xlink:href="#ma562d61c6b" y="121.3056"/>
      </g>
     </g>
     <g id="text_11">
      <!-- 1 -->
      <g transform="translate(44.2375 125.104819)scale(0.1 -0.1)">
       <use xlink:href="#DejaVuSans-49"/>
      </g>
     </g>
    </g>
    <g id="ytick_5">
     <g id="line2d_11">
      <g>
       <use style="stroke:#000000;stroke-width:0.8;" x="57.6" xlink:href="#ma562d61c6b" y="68.0832"/>
      </g>
     </g>
     <g id="text_12">
      <!-- 2 -->
      <g transform="translate(44.2375 71.882419)scale(0.1 -0.1)">
       <use xlink:href="#DejaVuSans-50"/>
      </g>
     </g>
    </g>
    <g id="text_13">
     <!-- ay/(m/s2) -->
     <g transform="translate(34.55 198.478)rotate(-90)scale(0.1 -0.1)">
      <defs>
       <path d="M 34.28125 27.484375 
Q 23.390625 27.484375 19.1875 25 
Q 14.984375 22.515625 14.984375 16.5 
Q 14.984375 11.71875 18.140625 8.90625 
Q 21.296875 6.109375 26.703125 6.109375 
Q 34.1875 6.109375 38.703125 11.40625 
Q 43.21875 16.703125 43.21875 25.484375 
L 43.21875 27.484375 
z
M 52.203125 31.203125 
L 52.203125 0 
L 43.21875 0 
L 43.21875 8.296875 
Q 40.140625 3.328125 35.546875 0.953125 
Q 30.953125 -1.421875 24.3125 -1.421875 
Q 15.921875 -1.421875 10.953125 3.296875 
Q 6 8.015625 6 15.921875 
Q 6 25.140625 12.171875 29.828125 
Q 18.359375 34.515625 30.609375 34.515625 
L 43.21875 34.515625 
L 43.21875 35.40625 
Q 43.21875 41.609375 39.140625 45 
Q 35.0625 48.390625 27.6875 48.390625 
Q 23 48.390625 18.546875 47.265625 
Q 14.109375 46.140625 10.015625 43.890625 
L 10.015625 52.203125 
Q 14.9375 54.109375 19.578125 55.046875 
Q 24.21875 56 28.609375 56 
Q 40.484375 56 46.34375 49.84375 
Q 52.203125 43.703125 52.203125 31.203125 
z
" id="DejaVuSans-97"/>
       <path d="M 32.171875 -5.078125 
Q 28.375 -14.84375 24.75 -17.8125 
Q 21.140625 -20.796875 15.09375 -20.796875 
L 7.90625 -20.796875 
L 7.90625 -13.28125 
L 13.1875 -13.28125 
Q 16.890625 -13.28125 18.9375 -11.515625 
Q 21 -9.765625 23.484375 -3.21875 
L 25.09375 0.875 
L 2.984375 54.6875 
L 12.5 54.6875 
L 29.59375 11.921875 
L 46.6875 54.6875 
L 56.203125 54.6875 
z
" id="DejaVuSans-121"/>
       <path d="M 31 75.875 
Q 24.46875 64.65625 21.28125 53.65625 
Q 18.109375 42.671875 18.109375 31.390625 
Q 18.109375 20.125 21.3125 9.0625 
Q 24.515625 -2 31 -13.1875 
L 23.1875 -13.1875 
Q 15.875 -1.703125 12.234375 9.375 
Q 8.59375 20.453125 8.59375 31.390625 
Q 8.59375 42.28125 12.203125 53.3125 
Q 15.828125 64.359375 23.1875 75.875 
z
" id="DejaVuSans-40"/>
       <path d="M 52 44.1875 
Q 55.375 50.25 60.0625 53.125 
Q 64.75 56 71.09375 56 
Q 79.640625 56 84.28125 50.015625 
Q 88.921875 44.046875 88.921875 33.015625 
L 88.921875 0 
L 79.890625 0 
L 79.890625 32.71875 
Q 79.890625 40.578125 77.09375 44.375 
Q 74.3125 48.1875 68.609375 48.1875 
Q 61.625 48.1875 57.5625 43.546875 
Q 53.515625 38.921875 53.515625 30.90625 
L 53.515625 0 
L 44.484375 0 
L 44.484375 32.71875 
Q 44.484375 40.625 41.703125 44.40625 
Q 38.921875 48.1875 33.109375 48.1875 
Q 26.21875 48.1875 22.15625 43.53125 
Q 18.109375 38.875 18.109375 30.90625 
L 18.109375 0 
L 9.078125 0 
L 9.078125 54.6875 
L 18.109375 54.6875 
L 18.109375 46.1875 
Q 21.1875 51.21875 25.484375 53.609375 
Q 29.78125 56 35.6875 56 
Q 41.65625 56 45.828125 52.96875 
Q 50 49.953125 52 44.1875 
z
" id="DejaVuSans-109"/>
       <path d="M 8.015625 75.875 
L 15.828125 75.875 
Q 23.140625 64.359375 26.78125 53.3125 
Q 30.421875 42.28125 30.421875 31.390625 
Q 30.421875 20.453125 26.78125 9.375 
Q 23.140625 -1.703125 15.828125 -13.1875 
L 8.015625 -13.1875 
Q 14.5 -2 17.703125 9.0625 
Q 20.90625 20.125 20.90625 31.390625 
Q 20.90625 42.671875 17.703125 53.65625 
Q 14.5 64.65625 8.015625 75.875 
z
" id="DejaVuSans-41"/>
      </defs>
      <use xlink:href="#DejaVuSans-97"/>
      <use x="61.279297" xlink:href="#DejaVuSans-121"/>
      <use x="120.458984" xlink:href="#DejaVuSans-47"/>
      <use x="154.150391" xlink:href="#DejaVuSans-40"/>
      <use x="193.164062" xlink:href="#DejaVuSans-109"/>
      <use x="290.576172" xlink:href="#DejaVuSans-47"/>
      <use x="324.267578" xlink:href="#DejaVuSans-115"/>
      <use x="376.367188" xlink:href="#DejaVuSans-50"/>
      <use x="439.990234" xlink:href="#DejaVuSans-41"/>
     </g>
    </g>
   </g>
   <g id="line2d_12">
    <path clip-path="url(#p2d2d8fb48b)" d="M 57.6 174.528 
L 64.7424 165.515106 
L 71.8848 157.605831 
L 79.0272 150.754193 
L 86.1696 144.914205 
L 93.312 140.039885 
L 100.4544 136.085248 
L 107.5968 133.004309 
L 114.7392 130.751086 
L 121.8816 129.279593 
L 129.024 128.543846 
L 136.1664 128.497862 
L 143.3088 129.095656 
L 150.4512 130.291244 
L 157.5936 132.038642 
L 164.736 134.291866 
L 171.8784 137.004931 
L 179.0208 140.131853 
L 186.1632 143.626649 
L 193.3056 147.443334 
L 200.448 151.535923 
L 207.5904 155.858434 
L 214.7328 160.364881 
L 221.8752 165.00928 
L 229.0176 169.745648 
L 236.16 174.528 
L 243.3024 179.310352 
L 250.4448 184.04672 
L 257.5872 188.691119 
L 264.7296 193.197566 
L 271.872 197.520077 
L 279.0144 201.612666 
L 286.1568 205.429351 
L 293.2992 208.924147 
L 300.4416 212.051069 
L 307.584 214.764134 
L 314.7264 217.017358 
L 321.8688 218.764756 
L 329.0112 219.960344 
L 336.1536 220.558138 
L 343.296 220.512154 
L 350.4384 219.776407 
L 357.5808 218.304914 
L 364.7232 216.051691 
L 371.8656 212.970752 
L 379.008 209.016115 
L 386.1504 204.141795 
L 393.2928 198.301807 
L 400.4352 191.450169 
L 407.5776 183.540894 
L 414.72 174.528 
" style="fill:none;stroke:#000000;stroke-linecap:square;stroke-width:2;"/>
   </g>
   <g id="line2d_13">
    <path clip-path="url(#p2d2d8fb48b)" d="M 57.6 174.528 
L 64.7424 157.196936 
L 71.8848 142.53219 
L 79.0272 130.393429 
L 86.1696 120.64032 
L 93.312 113.132531 
L 100.4544 107.72973 
L 107.5968 104.291584 
L 114.7392 102.67776 
L 121.8816 102.747926 
L 129.024 104.36175 
L 136.1664 107.378899 
L 143.3088 111.65904 
L 150.4512 117.061841 
L 157.5936 123.44697 
L 164.736 130.674094 
L 171.8784 138.60288 
L 179.0208 147.092996 
L 186.1632 156.00411 
L 193.3056 165.195889 
L 200.448 174.528 
L 207.5904 183.860111 
L 214.7328 193.05189 
L 221.8752 201.963004 
L 229.0176 210.45312 
L 236.16 218.381906 
L 243.3024 225.60903 
L 250.4448 231.994159 
L 257.5872 237.39696 
L 264.7296 241.677101 
L 271.872 244.69425 
L 279.0144 246.308074 
L 286.1568 246.37824 
L 293.2992 244.764416 
L 300.4416 241.32627 
L 307.584 235.923469 
L 314.7264 228.41568 
L 321.8688 218.662571 
L 329.0112 206.52381 
L 336.1536 191.859064 
L 343.296 174.528 
" style="fill:none;stroke:#0000ff;stroke-dasharray:7.4,3.2;stroke-dashoffset:0;stroke-width:2;"/>
   </g>
   <g id="line2d_14">
    <path clip-path="url(#p2d2d8fb48b)" d="M 57.6 174.528 
L 64.7424 134.51264 
L 71.8848 102.77632 
L 79.0272 78.72768 
L 86.1696 61.77536 
L 93.312 51.328 
L 100.4544 46.79424 
L 107.5968 47.58272 
L 114.7392 53.10208 
L 121.8816 62.76096 
L 129.024 75.968 
L 136.1664 92.13184 
L 143.3088 110.66112 
L 150.4512 130.96448 
L 157.5936 152.45056 
L 164.736 174.528 
L 171.8784 196.60544 
L 179.0208 218.09152 
L 186.1632 238.39488 
L 193.3056 256.92416 
L 200.448 273.088 
L 207.5904 286.29504 
L 214.7328 295.95392 
L 221.8752 301.47328 
L 229.0176 302.26176 
L 236.16 297.728 
L 243.3024 287.28064 
L 250.4448 270.32832 
L 257.5872 246.27968 
L 264.7296 214.54336 
L 271.872 174.528 
" style="fill:none;stroke:#ffa500;stroke-dasharray:12.8,3.2,2,3.2;stroke-dashoffset:0;stroke-width:2;"/>
   </g>
   <g id="patch_3">
    <path d="M 57.6 307.584 
L 57.6 41.472 
" style="fill:none;stroke:#000000;stroke-linecap:square;stroke-linejoin:miter;stroke-width:0.8;"/>
   </g>
   <g id="patch_4">
    <path d="M 414.72 307.584 
L 414.72 41.472 
" style="fill:none;stroke:#000000;stroke-linecap:square;stroke-linejoin:miter;stroke-width:0.8;"/>
   </g>
   <g id="patch_5">
    <path d="M 57.6 307.584 
L 414.72 307.584 
" style="fill:none;stroke:#000000;stroke-linecap:square;stroke-linejoin:miter;stroke-width:0.8;"/>
   </g>
   <g id="patch_6">
    <path d="M 57.6 41.472 
L 414.72 41.472 
" style="fill:none;stroke:#000000;stroke-linecap:square;stroke-linejoin:miter;stroke-width:0.8;"/>
   </g>
   <g id="text_14">
    <!-- 横向加速度 -->
    <g transform="translate(211.16 35.472)scale(0.1 -0.1)">
     <defs>
      <path d="M 7.03125 62.890625 
L 17.578125 62.890625 
L 17.578125 80.859375 
L 25 80.859375 
L 25 62.890625 
L 35.15625 62.890625 
L 35.15625 55.46875 
L 25 55.46875 
L 25 50.390625 
Q 31.25 41.40625 35.9375 33.203125 
L 30.859375 25.78125 
Q 28.125 33.203125 25 39.0625 
L 25 -8.984375 
L 17.578125 -8.984375 
L 17.578125 32.03125 
Q 14.453125 21.484375 9.375 12.109375 
L 3.90625 17.578125 
Q 13.671875 34.375 16.796875 55.46875 
L 7.03125 55.46875 
z
M 39.84375 72.265625 
L 50.78125 72.265625 
L 50.78125 80.859375 
L 58.203125 80.859375 
L 58.203125 72.265625 
L 73.046875 72.265625 
L 73.046875 80.859375 
L 80.46875 80.859375 
L 80.46875 72.265625 
L 91.40625 72.265625 
L 91.40625 65.625 
L 80.46875 65.625 
L 80.46875 56.640625 
L 94.53125 56.640625 
L 94.53125 50 
L 68.75 50 
L 68.75 43.75 
L 89.453125 43.75 
L 89.453125 7.421875 
L 41.015625 7.421875 
L 41.015625 43.75 
L 61.71875 43.75 
L 61.71875 50 
L 36.328125 50 
L 36.328125 56.640625 
L 50.78125 56.640625 
L 50.78125 65.625 
L 39.84375 65.625 
z
M 58.203125 56.640625 
L 73.046875 56.640625 
L 73.046875 65.625 
L 58.203125 65.625 
z
M 48.046875 28.515625 
L 61.71875 28.515625 
L 61.71875 37.109375 
L 48.046875 37.109375 
z
M 68.75 37.109375 
L 68.75 28.515625 
L 82.03125 28.515625 
L 82.03125 37.109375 
z
M 48.046875 14.0625 
L 61.71875 14.0625 
L 61.71875 22.265625 
L 48.046875 22.265625 
z
M 68.75 22.265625 
L 68.75 14.0625 
L 82.03125 14.0625 
L 82.03125 22.265625 
z
M 54.296875 5.46875 
L 59.375 0 
Q 52.34375 -5.078125 37.890625 -8.984375 
L 34.765625 -1.953125 
Q 46.09375 0.390625 54.296875 5.46875 
z
M 75 5.46875 
Q 84.765625 2.734375 94.140625 -2.734375 
L 89.84375 -9.765625 
Q 80.46875 -3.125 70.703125 0 
z
" id="WenQuanYiMicroHei-27178"/>
      <path d="M 39.84375 81.25 
L 49.21875 78.515625 
Q 46.875 73.4375 42.578125 67.1875 
L 89.0625 67.1875 
L 89.0625 1.171875 
Q 89.0625 -3.515625 86.328125 -6.046875 
Q 83.59375 -8.59375 78.515625 -8.59375 
Q 73.4375 -8.59375 66.796875 -7.421875 
L 65.234375 0.390625 
Q 73.828125 -0.78125 78.125 -0.78125 
Q 80.859375 -0.78125 80.859375 3.125 
L 80.859375 59.765625 
L 19.140625 59.765625 
L 19.140625 -8.984375 
L 10.9375 -8.984375 
L 10.9375 67.1875 
L 33.203125 67.1875 
Q 37.109375 73.046875 39.84375 81.25 
z
M 30.46875 46.875 
L 69.140625 46.875 
L 69.140625 13.28125 
L 30.46875 13.28125 
z
M 37.890625 20.3125 
L 62.109375 20.3125 
L 62.109375 39.84375 
L 37.890625 39.84375 
z
" id="WenQuanYiMicroHei-21521"/>
      <path d="M 5.859375 63.28125 
L 19.921875 63.28125 
L 19.921875 80.859375 
L 27.734375 80.859375 
L 27.734375 63.28125 
L 48.4375 63.28125 
Q 48.4375 23.828125 47.265625 11.125 
Q 46.09375 -1.5625 42.765625 -5.078125 
Q 39.453125 -8.59375 32.8125 -8.59375 
Q 28.90625 -8.59375 24.609375 -7.8125 
L 22.65625 -0.390625 
Q 27.734375 -1.171875 32.8125 -1.171875 
Q 37.5 -1.171875 38.671875 3.515625 
Q 41.015625 13.28125 41.015625 55.859375 
L 27.734375 55.859375 
Q 27.34375 7.8125 8.984375 -10.15625 
L 3.515625 -4.296875 
Q 19.53125 12.5 19.921875 55.859375 
L 5.859375 55.859375 
z
M 91.40625 72.65625 
L 91.40625 -3.515625 
L 83.984375 -3.515625 
L 83.984375 3.125 
L 63.28125 3.125 
L 63.28125 -3.90625 
L 55.859375 -3.90625 
L 55.859375 72.65625 
z
M 63.28125 10.15625 
L 83.984375 10.15625 
L 83.984375 65.625 
L 63.28125 65.625 
z
" id="WenQuanYiMicroHei-21152"/>
      <path d="M 33.203125 73.4375 
L 58.984375 73.4375 
L 58.984375 81.25 
L 66.40625 81.25 
L 66.40625 73.4375 
L 92.578125 73.4375 
L 92.578125 66.40625 
L 66.40625 66.40625 
L 66.40625 58.59375 
L 88.671875 58.59375 
L 88.671875 32.421875 
L 66.40625 32.421875 
L 66.40625 3.90625 
L 58.984375 3.90625 
L 58.984375 30.859375 
Q 50 16.796875 35.9375 8.59375 
L 30.46875 15.625 
Q 44.140625 22.265625 51.953125 32.421875 
L 36.71875 32.421875 
L 36.71875 58.59375 
L 58.984375 58.59375 
L 58.984375 66.40625 
L 33.203125 66.40625 
z
M 43.75 39.453125 
L 58.984375 39.453125 
L 58.984375 51.5625 
L 43.75 51.5625 
z
M 66.40625 51.5625 
L 66.40625 39.453125 
L 81.25 39.453125 
L 81.25 51.5625 
z
M 74.21875 28.90625 
Q 85.15625 23.046875 94.140625 15.234375 
L 88.671875 9.375 
Q 80.078125 17.578125 69.53125 23.046875 
z
M 11.71875 78.515625 
Q 19.53125 73.4375 25.78125 66.40625 
L 20.3125 59.765625 
Q 13.671875 67.578125 6.25 72.65625 
z
M 5.078125 46.09375 
L 24.609375 46.09375 
L 24.609375 8.59375 
Q 29.296875 5.078125 36.515625 3.515625 
Q 43.75 1.953125 67.96875 1.953125 
L 95.3125 1.953125 
L 91.40625 -6.640625 
L 60.15625 -6.640625 
Q 42.96875 -6.640625 35.15625 -4.296875 
Q 27.34375 -1.953125 21.484375 3.125 
L 10.15625 -8.203125 
L 4.6875 0 
Q 10.9375 3.515625 16.796875 7.421875 
L 16.796875 38.671875 
L 5.078125 38.671875 
z
" id="WenQuanYiMicroHei-36895"/>
      <path d="M 53.90625 81.25 
Q 56.25 77.734375 57.8125 73.046875 
L 92.578125 73.046875 
L 92.578125 66.015625 
L 21.484375 66.015625 
L 21.484375 35.546875 
Q 21.484375 10.546875 11.328125 -8.984375 
L 3.90625 -4.296875 
Q 9.375 7.03125 11.515625 16.203125 
Q 13.671875 25.390625 13.671875 38.28125 
L 13.671875 73.046875 
L 49.21875 73.046875 
Q 48.046875 76.171875 46.09375 78.90625 
z
M 23.4375 55.859375 
L 38.28125 55.859375 
L 38.28125 63.28125 
L 45.703125 63.28125 
L 45.703125 55.859375 
L 69.53125 55.859375 
L 69.53125 63.28125 
L 76.953125 63.28125 
L 76.953125 55.859375 
L 91.796875 55.859375 
L 91.796875 49.21875 
L 76.953125 49.21875 
L 76.953125 33.59375 
L 38.28125 33.59375 
L 38.28125 49.21875 
L 23.4375 49.21875 
z
M 69.53125 40.234375 
L 69.53125 49.21875 
L 45.703125 49.21875 
L 45.703125 40.234375 
z
M 27.34375 26.953125 
L 85.546875 26.953125 
L 85.546875 21.09375 
Q 78.90625 11.328125 66.40625 4.296875 
Q 76.953125 0 95.3125 -0.78125 
L 92.96875 -8.59375 
Q 70.703125 -7.8125 57.03125 -0.390625 
Q 42.578125 -6.25 23.828125 -9.375 
L 19.140625 -2.34375 
Q 36.71875 0 48.828125 4.296875 
Q 39.84375 10.15625 32.421875 20.3125 
L 27.34375 20.3125 
z
M 42.1875 20.3125 
Q 49.609375 12.109375 57.8125 8.203125 
Q 67.96875 13.28125 74.21875 20.3125 
z
" id="WenQuanYiMicroHei-24230"/>
     </defs>
     <use xlink:href="#WenQuanYiMicroHei-27178"/>
     <use x="100" xlink:href="#WenQuanYiMicroHei-21521"/>
     <use x="200" xlink:href="#WenQuanYiMicroHei-21152"/>
     <use x="300" xlink:href="#WenQuanYiMicroHei-36895"/>
     <use x="400" xlink:href="#WenQuanYiMicroHei-24230"/>
    </g>
   </g>
   <g id="legend_1">
    <g id="patch_7">
     <path d="M 338.955938 93.506375 
L 407.72 93.506375 
Q 409.72 93.506375 409.72 91.506375 
L 409.72 48.472 
Q 409.72 46.472 407.72 46.472 
L 338.955938 46.472 
Q 336.955938 46.472 336.955938 48.472 
L 336.955938 91.506375 
Q 336.955938 93.506375 338.955938 93.506375 
z
" style="fill:#ffffff;opacity:0.8;stroke:#cccccc;stroke-linejoin:miter;"/>
    </g>
    <g id="line2d_15">
     <path d="M 340.955938 54.570438 
L 360.955938 54.570438 
" style="fill:none;stroke:#000000;stroke-linecap:square;stroke-width:2;"/>
    </g>
    <g id="line2d_16"/>
    <g id="text_15">
     <!-- x=50m -->
     <g transform="translate(368.955938 58.070438)scale(0.1 -0.1)">
      <defs>
       <path d="M 54.890625 54.6875 
L 35.109375 28.078125 
L 55.90625 0 
L 45.3125 0 
L 29.390625 21.484375 
L 13.484375 0 
L 2.875 0 
L 24.125 28.609375 
L 4.6875 54.6875 
L 15.28125 54.6875 
L 29.78125 35.203125 
L 44.28125 54.6875 
z
" id="DejaVuSans-120"/>
       <path d="M 10.59375 45.40625 
L 73.1875 45.40625 
L 73.1875 37.203125 
L 10.59375 37.203125 
z
M 10.59375 25.484375 
L 73.1875 25.484375 
L 73.1875 17.1875 
L 10.59375 17.1875 
z
" id="DejaVuSans-61"/>
      </defs>
      <use xlink:href="#DejaVuSans-120"/>
      <use x="59.179688" xlink:href="#DejaVuSans-61"/>
      <use x="142.96875" xlink:href="#DejaVuSans-53"/>
      <use x="206.591797" xlink:href="#DejaVuSans-48"/>
      <use x="270.214844" xlink:href="#DejaVuSans-109"/>
     </g>
    </g>
    <g id="line2d_17">
     <path d="M 340.955938 69.248563 
L 360.955938 69.248563 
" style="fill:none;stroke:#0000ff;stroke-dasharray:7.4,3.2;stroke-dashoffset:0;stroke-width:2;"/>
    </g>
    <g id="line2d_18"/>
    <g id="text_16">
     <!-- x=40m -->
     <g transform="translate(368.955938 72.748563)scale(0.1 -0.1)">
      <use xlink:href="#DejaVuSans-120"/>
      <use x="59.179688" xlink:href="#DejaVuSans-61"/>
      <use x="142.96875" xlink:href="#DejaVuSans-52"/>
      <use x="206.591797" xlink:href="#DejaVuSans-48"/>
      <use x="270.214844" xlink:href="#DejaVuSans-109"/>
     </g>
    </g>
    <g id="line2d_19">
     <path d="M 340.955938 83.926688 
L 360.955938 83.926688 
" style="fill:none;stroke:#ffa500;stroke-dasharray:12.8,3.2,2,3.2;stroke-dashoffset:0;stroke-width:2;"/>
    </g>
    <g id="line2d_20"/>
    <g id="text_17">
     <!-- x=30m -->
     <g transform="translate(368.955938 87.426688)scale(0.1 -0.1)">
      <use xlink:href="#DejaVuSans-120"/>
      <use x="59.179688" xlink:href="#DejaVuSans-61"/>
      <use x="142.96875" xlink:href="#DejaVuSans-51"/>
      <use x="206.591797" xlink:href="#DejaVuSans-48"/>
      <use x="270.214844" xlink:href="#DejaVuSans-109"/>
     </g>
    </g>
   </g>
  </g>
 </g>
 <defs>
  <clipPath id="p2d2d8fb48b">
   <rect height="266.112" width="357.12" x="57.6" y="41.472"/>
  </clipPath>
 </defs>
</svg>
