<?xml version="1.0" encoding="utf-8" standalone="no"?>
<!DOCTYPE svg PUBLIC "-//W3C//DTD SVG 1.1//EN"
  "http://www.w3.org/Graphics/SVG/1.1/DTD/svg11.dtd">
<!-- Created with matplotlib (https://matplotlib.org/) -->
<svg height="345.6pt" version="1.1" viewBox="0 0 460.8 345.6" width="460.8pt" xmlns="http://www.w3.org/2000/svg" xmlns:xlink="http://www.w3.org/1999/xlink">
 <metadata>
  <rdf:RDF xmlns:cc="http://creativecommons.org/ns#" xmlns:dc="http://purl.org/dc/elements/1.1/" xmlns:rdf="http://www.w3.org/1999/02/22-rdf-syntax-ns#">
   <cc:Work>
    <dc:type rdf:resource="http://purl.org/dc/dcmitype/StillImage"/>
    <dc:date>2022-01-03T14:39:49.110271</dc:date>
    <dc:format>image/svg+xml</dc:format>
    <dc:creator>
     <cc:Agent>
      <dc:title>Matplotlib v3.3.1, https://matplotlib.org/</dc:title>
     </cc:Agent>
    </dc:creator>
   </cc:Work>
  </rdf:RDF>
 </metadata>
 <defs>
  <style type="text/css">*{stroke-linecap:butt;stroke-linejoin:round;}</style>
 </defs>
 <g id="figure_1">
  <g id="patch_1">
   <path d="M 0 345.6 
L 460.8 345.6 
L 460.8 0 
L 0 0 
z
" style="fill:#ffffff;"/>
  </g>
  <g id="axes_1">
   <g id="patch_2">
    <path d="M 57.6 307.584 
L 414.72 307.584 
L 414.72 41.472 
L 57.6 41.472 
z
" style="fill:#ffffff;"/>
   </g>
   <g id="matplotlib.axis_1">
    <g id="xtick_1">
     <g id="line2d_1">
      <defs>
       <path d="M 0 0 
L 0 3.5 
" id="m8f9b35cabe" style="stroke:#000000;stroke-width:0.8;"/>
      </defs>
      <g>
       <use style="stroke:#000000;stroke-width:0.8;" x="57.6" xlink:href="#m8f9b35cabe" y="307.584"/>
      </g>
     </g>
     <g id="text_1">
      <!-- 0 -->
      <g transform="translate(54.41875 322.182437)scale(0.1 -0.1)">
       <defs>
        <path d="M 31.78125 66.40625 
Q 24.171875 66.40625 20.328125 58.90625 
Q 16.5 51.421875 16.5 36.375 
Q 16.5 21.390625 20.328125 13.890625 
Q 24.171875 6.390625 31.78125 6.390625 
Q 39.453125 6.390625 43.28125 13.890625 
Q 47.125 21.390625 47.125 36.375 
Q 47.125 51.421875 43.28125 58.90625 
Q 39.453125 66.40625 31.78125 66.40625 
z
M 31.78125 74.21875 
Q 44.046875 74.21875 50.515625 64.515625 
Q 56.984375 54.828125 56.984375 36.375 
Q 56.984375 17.96875 50.515625 8.265625 
Q 44.046875 -1.421875 31.78125 -1.421875 
Q 19.53125 -1.421875 13.0625 8.265625 
Q 6.59375 17.96875 6.59375 36.375 
Q 6.59375 54.828125 13.0625 64.515625 
Q 19.53125 74.21875 31.78125 74.21875 
z
" id="DejaVuSans-48"/>
       </defs>
       <use xlink:href="#DejaVuSans-48"/>
      </g>
     </g>
    </g>
    <g id="xtick_2">
     <g id="line2d_2">
      <g>
       <use style="stroke:#000000;stroke-width:0.8;" x="117.12" xlink:href="#m8f9b35cabe" y="307.584"/>
      </g>
     </g>
     <g id="text_2">
      <!-- 2 -->
      <g transform="translate(113.93875 322.182437)scale(0.1 -0.1)">
       <defs>
        <path d="M 19.1875 8.296875 
L 53.609375 8.296875 
L 53.609375 0 
L 7.328125 0 
L 7.328125 8.296875 
Q 12.9375 14.109375 22.625 23.890625 
Q 32.328125 33.6875 34.8125 36.53125 
Q 39.546875 41.84375 41.421875 45.53125 
Q 43.3125 49.21875 43.3125 52.78125 
Q 43.3125 58.59375 39.234375 62.25 
Q 35.15625 65.921875 28.609375 65.921875 
Q 23.96875 65.921875 18.8125 64.3125 
Q 13.671875 62.703125 7.8125 59.421875 
L 7.8125 69.390625 
Q 13.765625 71.78125 18.9375 73 
Q 24.125 74.21875 28.421875 74.21875 
Q 39.75 74.21875 46.484375 68.546875 
Q 53.21875 62.890625 53.21875 53.421875 
Q 53.21875 48.921875 51.53125 44.890625 
Q 49.859375 40.875 45.40625 35.40625 
Q 44.1875 33.984375 37.640625 27.21875 
Q 31.109375 20.453125 19.1875 8.296875 
z
" id="DejaVuSans-50"/>
       </defs>
       <use xlink:href="#DejaVuSans-50"/>
      </g>
     </g>
    </g>
    <g id="xtick_3">
     <g id="line2d_3">
      <g>
       <use style="stroke:#000000;stroke-width:0.8;" x="176.64" xlink:href="#m8f9b35cabe" y="307.584"/>
      </g>
     </g>
     <g id="text_3">
      <!-- 4 -->
      <g transform="translate(173.45875 322.182437)scale(0.1 -0.1)">
       <defs>
        <path d="M 37.796875 64.3125 
L 12.890625 25.390625 
L 37.796875 25.390625 
z
M 35.203125 72.90625 
L 47.609375 72.90625 
L 47.609375 25.390625 
L 58.015625 25.390625 
L 58.015625 17.1875 
L 47.609375 17.1875 
L 47.609375 0 
L 37.796875 0 
L 37.796875 17.1875 
L 4.890625 17.1875 
L 4.890625 26.703125 
z
" id="DejaVuSans-52"/>
       </defs>
       <use xlink:href="#DejaVuSans-52"/>
      </g>
     </g>
    </g>
    <g id="xtick_4">
     <g id="line2d_4">
      <g>
       <use style="stroke:#000000;stroke-width:0.8;" x="236.16" xlink:href="#m8f9b35cabe" y="307.584"/>
      </g>
     </g>
     <g id="text_4">
      <!-- 6 -->
      <g transform="translate(232.97875 322.182437)scale(0.1 -0.1)">
       <defs>
        <path d="M 33.015625 40.375 
Q 26.375 40.375 22.484375 35.828125 
Q 18.609375 31.296875 18.609375 23.390625 
Q 18.609375 15.53125 22.484375 10.953125 
Q 26.375 6.390625 33.015625 6.390625 
Q 39.65625 6.390625 43.53125 10.953125 
Q 47.40625 15.53125 47.40625 23.390625 
Q 47.40625 31.296875 43.53125 35.828125 
Q 39.65625 40.375 33.015625 40.375 
z
M 52.59375 71.296875 
L 52.59375 62.3125 
Q 48.875 64.0625 45.09375 64.984375 
Q 41.3125 65.921875 37.59375 65.921875 
Q 27.828125 65.921875 22.671875 59.328125 
Q 17.53125 52.734375 16.796875 39.40625 
Q 19.671875 43.65625 24.015625 45.921875 
Q 28.375 48.1875 33.59375 48.1875 
Q 44.578125 48.1875 50.953125 41.515625 
Q 57.328125 34.859375 57.328125 23.390625 
Q 57.328125 12.15625 50.6875 5.359375 
Q 44.046875 -1.421875 33.015625 -1.421875 
Q 20.359375 -1.421875 13.671875 8.265625 
Q 6.984375 17.96875 6.984375 36.375 
Q 6.984375 53.65625 15.1875 63.9375 
Q 23.390625 74.21875 37.203125 74.21875 
Q 40.921875 74.21875 44.703125 73.484375 
Q 48.484375 72.75 52.59375 71.296875 
z
" id="DejaVuSans-54"/>
       </defs>
       <use xlink:href="#DejaVuSans-54"/>
      </g>
     </g>
    </g>
    <g id="xtick_5">
     <g id="line2d_5">
      <g>
       <use style="stroke:#000000;stroke-width:0.8;" x="295.68" xlink:href="#m8f9b35cabe" y="307.584"/>
      </g>
     </g>
     <g id="text_5">
      <!-- 8 -->
      <g transform="translate(292.49875 322.182437)scale(0.1 -0.1)">
       <defs>
        <path d="M 31.78125 34.625 
Q 24.75 34.625 20.71875 30.859375 
Q 16.703125 27.09375 16.703125 20.515625 
Q 16.703125 13.921875 20.71875 10.15625 
Q 24.75 6.390625 31.78125 6.390625 
Q 38.8125 6.390625 42.859375 10.171875 
Q 46.921875 13.96875 46.921875 20.515625 
Q 46.921875 27.09375 42.890625 30.859375 
Q 38.875 34.625 31.78125 34.625 
z
M 21.921875 38.8125 
Q 15.578125 40.375 12.03125 44.71875 
Q 8.5 49.078125 8.5 55.328125 
Q 8.5 64.0625 14.71875 69.140625 
Q 20.953125 74.21875 31.78125 74.21875 
Q 42.671875 74.21875 48.875 69.140625 
Q 55.078125 64.0625 55.078125 55.328125 
Q 55.078125 49.078125 51.53125 44.71875 
Q 48 40.375 41.703125 38.8125 
Q 48.828125 37.15625 52.796875 32.3125 
Q 56.78125 27.484375 56.78125 20.515625 
Q 56.78125 9.90625 50.3125 4.234375 
Q 43.84375 -1.421875 31.78125 -1.421875 
Q 19.734375 -1.421875 13.25 4.234375 
Q 6.78125 9.90625 6.78125 20.515625 
Q 6.78125 27.484375 10.78125 32.3125 
Q 14.796875 37.15625 21.921875 38.8125 
z
M 18.3125 54.390625 
Q 18.3125 48.734375 21.84375 45.5625 
Q 25.390625 42.390625 31.78125 42.390625 
Q 38.140625 42.390625 41.71875 45.5625 
Q 45.3125 48.734375 45.3125 54.390625 
Q 45.3125 60.0625 41.71875 63.234375 
Q 38.140625 66.40625 31.78125 66.40625 
Q 25.390625 66.40625 21.84375 63.234375 
Q 18.3125 60.0625 18.3125 54.390625 
z
" id="DejaVuSans-56"/>
       </defs>
       <use xlink:href="#DejaVuSans-56"/>
      </g>
     </g>
    </g>
    <g id="xtick_6">
     <g id="line2d_6">
      <g>
       <use style="stroke:#000000;stroke-width:0.8;" x="355.2" xlink:href="#m8f9b35cabe" y="307.584"/>
      </g>
     </g>
     <g id="text_6">
      <!-- 10 -->
      <g transform="translate(348.8375 322.182437)scale(0.1 -0.1)">
       <defs>
        <path d="M 12.40625 8.296875 
L 28.515625 8.296875 
L 28.515625 63.921875 
L 10.984375 60.40625 
L 10.984375 69.390625 
L 28.421875 72.90625 
L 38.28125 72.90625 
L 38.28125 8.296875 
L 54.390625 8.296875 
L 54.390625 0 
L 12.40625 0 
z
" id="DejaVuSans-49"/>
       </defs>
       <use xlink:href="#DejaVuSans-49"/>
       <use x="63.623047" xlink:href="#DejaVuSans-48"/>
      </g>
     </g>
    </g>
    <g id="xtick_7">
     <g id="line2d_7">
      <g>
       <use style="stroke:#000000;stroke-width:0.8;" x="414.72" xlink:href="#m8f9b35cabe" y="307.584"/>
      </g>
     </g>
     <g id="text_7">
      <!-- 12 -->
      <g transform="translate(408.3575 322.182437)scale(0.1 -0.1)">
       <use xlink:href="#DejaVuSans-49"/>
       <use x="63.623047" xlink:href="#DejaVuSans-50"/>
      </g>
     </g>
    </g>
    <g id="text_8">
     <!-- t/s -->
     <g transform="translate(229.910781 335.860562)scale(0.1 -0.1)">
      <defs>
       <path d="M 18.3125 70.21875 
L 18.3125 54.6875 
L 36.8125 54.6875 
L 36.8125 47.703125 
L 18.3125 47.703125 
L 18.3125 18.015625 
Q 18.3125 11.328125 20.140625 9.421875 
Q 21.96875 7.515625 27.59375 7.515625 
L 36.8125 7.515625 
L 36.8125 0 
L 27.59375 0 
Q 17.1875 0 13.234375 3.875 
Q 9.28125 7.765625 9.28125 18.015625 
L 9.28125 47.703125 
L 2.6875 47.703125 
L 2.6875 54.6875 
L 9.28125 54.6875 
L 9.28125 70.21875 
z
" id="DejaVuSans-116"/>
       <path d="M 25.390625 72.90625 
L 33.6875 72.90625 
L 8.296875 -9.28125 
L 0 -9.28125 
z
" id="DejaVuSans-47"/>
       <path d="M 44.28125 53.078125 
L 44.28125 44.578125 
Q 40.484375 46.53125 36.375 47.5 
Q 32.28125 48.484375 27.875 48.484375 
Q 21.1875 48.484375 17.84375 46.4375 
Q 14.5 44.390625 14.5 40.28125 
Q 14.5 37.15625 16.890625 35.375 
Q 19.28125 33.59375 26.515625 31.984375 
L 29.59375 31.296875 
Q 39.15625 29.25 43.1875 25.515625 
Q 47.21875 21.78125 47.21875 15.09375 
Q 47.21875 7.46875 41.1875 3.015625 
Q 35.15625 -1.421875 24.609375 -1.421875 
Q 20.21875 -1.421875 15.453125 -0.5625 
Q 10.6875 0.296875 5.421875 2 
L 5.421875 11.28125 
Q 10.40625 8.6875 15.234375 7.390625 
Q 20.0625 6.109375 24.8125 6.109375 
Q 31.15625 6.109375 34.5625 8.28125 
Q 37.984375 10.453125 37.984375 14.40625 
Q 37.984375 18.0625 35.515625 20.015625 
Q 33.0625 21.96875 24.703125 23.78125 
L 21.578125 24.515625 
Q 13.234375 26.265625 9.515625 29.90625 
Q 5.8125 33.546875 5.8125 39.890625 
Q 5.8125 47.609375 11.28125 51.796875 
Q 16.75 56 26.8125 56 
Q 31.78125 56 36.171875 55.265625 
Q 40.578125 54.546875 44.28125 53.078125 
z
" id="DejaVuSans-115"/>
      </defs>
      <use xlink:href="#DejaVuSans-116"/>
      <use x="39.208984" xlink:href="#DejaVuSans-47"/>
      <use x="72.900391" xlink:href="#DejaVuSans-115"/>
     </g>
    </g>
   </g>
   <g id="matplotlib.axis_2">
    <g id="ytick_1">
     <g id="line2d_8">
      <defs>
       <path d="M 0 0 
L -3.5 0 
" id="m1efda1a556" style="stroke:#000000;stroke-width:0.8;"/>
      </defs>
      <g>
       <use style="stroke:#000000;stroke-width:0.8;" x="57.6" xlink:href="#m1efda1a556" y="307.584"/>
      </g>
     </g>
     <g id="text_9">
      <!-- -2 -->
      <g transform="translate(40.629688 311.383219)scale(0.1 -0.1)">
       <defs>
        <path d="M 4.890625 31.390625 
L 31.203125 31.390625 
L 31.203125 23.390625 
L 4.890625 23.390625 
z
" id="DejaVuSans-45"/>
       </defs>
       <use xlink:href="#DejaVuSans-45"/>
       <use x="36.083984" xlink:href="#DejaVuSans-50"/>
      </g>
     </g>
    </g>
    <g id="ytick_2">
     <g id="line2d_9">
      <g>
       <use style="stroke:#000000;stroke-width:0.8;" x="57.6" xlink:href="#m1efda1a556" y="260.064"/>
      </g>
     </g>
     <g id="text_10">
      <!-- -1 -->
      <g transform="translate(40.629688 263.863219)scale(0.1 -0.1)">
       <use xlink:href="#DejaVuSans-45"/>
       <use x="36.083984" xlink:href="#DejaVuSans-49"/>
      </g>
     </g>
    </g>
    <g id="ytick_3">
     <g id="line2d_10">
      <g>
       <use style="stroke:#000000;stroke-width:0.8;" x="57.6" xlink:href="#m1efda1a556" y="212.544"/>
      </g>
     </g>
     <g id="text_11">
      <!-- 0 -->
      <g transform="translate(44.2375 216.343219)scale(0.1 -0.1)">
       <use xlink:href="#DejaVuSans-48"/>
      </g>
     </g>
    </g>
    <g id="ytick_4">
     <g id="line2d_11">
      <g>
       <use style="stroke:#000000;stroke-width:0.8;" x="57.6" xlink:href="#m1efda1a556" y="165.024"/>
      </g>
     </g>
     <g id="text_12">
      <!-- 1 -->
      <g transform="translate(44.2375 168.823219)scale(0.1 -0.1)">
       <use xlink:href="#DejaVuSans-49"/>
      </g>
     </g>
    </g>
    <g id="ytick_5">
     <g id="line2d_12">
      <g>
       <use style="stroke:#000000;stroke-width:0.8;" x="57.6" xlink:href="#m1efda1a556" y="117.504"/>
      </g>
     </g>
     <g id="text_13">
      <!-- 2 -->
      <g transform="translate(44.2375 121.303219)scale(0.1 -0.1)">
       <use xlink:href="#DejaVuSans-50"/>
      </g>
     </g>
    </g>
    <g id="ytick_6">
     <g id="line2d_13">
      <g>
       <use style="stroke:#000000;stroke-width:0.8;" x="57.6" xlink:href="#m1efda1a556" y="69.984"/>
      </g>
     </g>
     <g id="text_14">
      <!-- 3 -->
      <g transform="translate(44.2375 73.783219)scale(0.1 -0.1)">
       <defs>
        <path d="M 40.578125 39.3125 
Q 47.65625 37.796875 51.625 33 
Q 55.609375 28.21875 55.609375 21.1875 
Q 55.609375 10.40625 48.1875 4.484375 
Q 40.765625 -1.421875 27.09375 -1.421875 
Q 22.515625 -1.421875 17.65625 -0.515625 
Q 12.796875 0.390625 7.625 2.203125 
L 7.625 11.71875 
Q 11.71875 9.328125 16.59375 8.109375 
Q 21.484375 6.890625 26.8125 6.890625 
Q 36.078125 6.890625 40.9375 10.546875 
Q 45.796875 14.203125 45.796875 21.1875 
Q 45.796875 27.640625 41.28125 31.265625 
Q 36.765625 34.90625 28.71875 34.90625 
L 20.21875 34.90625 
L 20.21875 43.015625 
L 29.109375 43.015625 
Q 36.375 43.015625 40.234375 45.921875 
Q 44.09375 48.828125 44.09375 54.296875 
Q 44.09375 59.90625 40.109375 62.90625 
Q 36.140625 65.921875 28.71875 65.921875 
Q 24.65625 65.921875 20.015625 65.03125 
Q 15.375 64.15625 9.8125 62.3125 
L 9.8125 71.09375 
Q 15.4375 72.65625 20.34375 73.4375 
Q 25.25 74.21875 29.59375 74.21875 
Q 40.828125 74.21875 47.359375 69.109375 
Q 53.90625 64.015625 53.90625 55.328125 
Q 53.90625 49.265625 50.4375 45.09375 
Q 46.96875 40.921875 40.578125 39.3125 
z
" id="DejaVuSans-51"/>
       </defs>
       <use xlink:href="#DejaVuSans-51"/>
      </g>
     </g>
    </g>
    <g id="text_15">
     <!-- jy/(m/s3) -->
     <g transform="translate(34.55 196.803)rotate(-90)scale(0.1 -0.1)">
      <defs>
       <path d="M 9.421875 54.6875 
L 18.40625 54.6875 
L 18.40625 -0.984375 
Q 18.40625 -11.421875 14.421875 -16.109375 
Q 10.453125 -20.796875 1.609375 -20.796875 
L -1.8125 -20.796875 
L -1.8125 -13.1875 
L 0.59375 -13.1875 
Q 5.71875 -13.1875 7.5625 -10.8125 
Q 9.421875 -8.453125 9.421875 -0.984375 
z
M 9.421875 75.984375 
L 18.40625 75.984375 
L 18.40625 64.59375 
L 9.421875 64.59375 
z
" id="DejaVuSans-106"/>
       <path d="M 32.171875 -5.078125 
Q 28.375 -14.84375 24.75 -17.8125 
Q 21.140625 -20.796875 15.09375 -20.796875 
L 7.90625 -20.796875 
L 7.90625 -13.28125 
L 13.1875 -13.28125 
Q 16.890625 -13.28125 18.9375 -11.515625 
Q 21 -9.765625 23.484375 -3.21875 
L 25.09375 0.875 
L 2.984375 54.6875 
L 12.5 54.6875 
L 29.59375 11.921875 
L 46.6875 54.6875 
L 56.203125 54.6875 
z
" id="DejaVuSans-121"/>
       <path d="M 31 75.875 
Q 24.46875 64.65625 21.28125 53.65625 
Q 18.109375 42.671875 18.109375 31.390625 
Q 18.109375 20.125 21.3125 9.0625 
Q 24.515625 -2 31 -13.1875 
L 23.1875 -13.1875 
Q 15.875 -1.703125 12.234375 9.375 
Q 8.59375 20.453125 8.59375 31.390625 
Q 8.59375 42.28125 12.203125 53.3125 
Q 15.828125 64.359375 23.1875 75.875 
z
" id="DejaVuSans-40"/>
       <path d="M 52 44.1875 
Q 55.375 50.25 60.0625 53.125 
Q 64.75 56 71.09375 56 
Q 79.640625 56 84.28125 50.015625 
Q 88.921875 44.046875 88.921875 33.015625 
L 88.921875 0 
L 79.890625 0 
L 79.890625 32.71875 
Q 79.890625 40.578125 77.09375 44.375 
Q 74.3125 48.1875 68.609375 48.1875 
Q 61.625 48.1875 57.5625 43.546875 
Q 53.515625 38.921875 53.515625 30.90625 
L 53.515625 0 
L 44.484375 0 
L 44.484375 32.71875 
Q 44.484375 40.625 41.703125 44.40625 
Q 38.921875 48.1875 33.109375 48.1875 
Q 26.21875 48.1875 22.15625 43.53125 
Q 18.109375 38.875 18.109375 30.90625 
L 18.109375 0 
L 9.078125 0 
L 9.078125 54.6875 
L 18.109375 54.6875 
L 18.109375 46.1875 
Q 21.1875 51.21875 25.484375 53.609375 
Q 29.78125 56 35.6875 56 
Q 41.65625 56 45.828125 52.96875 
Q 50 49.953125 52 44.1875 
z
" id="DejaVuSans-109"/>
       <path d="M 8.015625 75.875 
L 15.828125 75.875 
Q 23.140625 64.359375 26.78125 53.3125 
Q 30.421875 42.28125 30.421875 31.390625 
Q 30.421875 20.453125 26.78125 9.375 
Q 23.140625 -1.703125 15.828125 -13.1875 
L 8.015625 -13.1875 
Q 14.5 -2 17.703125 9.0625 
Q 20.90625 20.125 20.90625 31.390625 
Q 20.90625 42.671875 17.703125 53.65625 
Q 14.5 64.65625 8.015625 75.875 
z
" id="DejaVuSans-41"/>
      </defs>
      <use xlink:href="#DejaVuSans-106"/>
      <use x="27.783203" xlink:href="#DejaVuSans-121"/>
      <use x="86.962891" xlink:href="#DejaVuSans-47"/>
      <use x="120.654297" xlink:href="#DejaVuSans-40"/>
      <use x="159.667969" xlink:href="#DejaVuSans-109"/>
      <use x="257.080078" xlink:href="#DejaVuSans-47"/>
      <use x="290.771484" xlink:href="#DejaVuSans-115"/>
      <use x="342.871094" xlink:href="#DejaVuSans-51"/>
      <use x="406.494141" xlink:href="#DejaVuSans-41"/>
     </g>
    </g>
   </g>
   <g id="line2d_14">
    <path clip-path="url(#p5a13aa19da)" d="M 57.6 206.3565 
L 60.576 206.663297 
L 63.552 206.964937 
L 66.528 207.261422 
L 69.504 207.55275 
L 72.48 207.838922 
L 75.456 208.119937 
L 78.432 208.395797 
L 81.408 208.6665 
L 84.384 208.932047 
L 87.36 209.192437 
L 90.336 209.447672 
L 93.312 209.69775 
L 96.288 209.942672 
L 99.264 210.182437 
L 102.24 210.417047 
L 105.216 210.6465 
L 108.192 210.870797 
L 111.168 211.089937 
L 114.144 211.303922 
L 117.12 211.51275 
L 120.096 211.716422 
L 123.072 211.914937 
L 126.048 212.108297 
L 129.024 212.2965 
L 132 212.479547 
L 134.976 212.657437 
L 137.952 212.830172 
L 140.928 212.99775 
L 143.904 213.160172 
L 146.88 213.317437 
L 149.856 213.469547 
L 152.832 213.6165 
L 155.808 213.758297 
L 158.784 213.894937 
L 161.76 214.026422 
L 164.736 214.15275 
L 167.712 214.273922 
L 170.688 214.389937 
L 173.664 214.500797 
L 176.64 214.6065 
L 179.616 214.707047 
L 182.592 214.802437 
L 185.568 214.892672 
L 188.544 214.97775 
L 191.52 215.057672 
L 194.496 215.132437 
L 197.472 215.202047 
L 200.448 215.2665 
L 203.424 215.325797 
L 206.4 215.379937 
L 209.376 215.428922 
L 212.352 215.47275 
L 215.328 215.511422 
L 218.304 215.544937 
L 221.28 215.573297 
L 224.256 215.5965 
L 227.232 215.614547 
L 230.208 215.627437 
L 233.184 215.635172 
L 236.16 215.63775 
L 239.136 215.635172 
L 242.112 215.627437 
L 245.088 215.614547 
L 248.064 215.5965 
L 251.04 215.573297 
L 254.016 215.544937 
L 256.992 215.511422 
L 259.968 215.47275 
L 262.944 215.428922 
L 265.92 215.379937 
L 268.896 215.325797 
L 271.872 215.2665 
L 274.848 215.202047 
L 277.824 215.132437 
L 280.8 215.057672 
L 283.776 214.97775 
L 286.752 214.892672 
L 289.728 214.802437 
L 292.704 214.707047 
L 295.68 214.6065 
L 298.656 214.500797 
L 301.632 214.389937 
L 304.608 214.273922 
L 307.584 214.15275 
L 310.56 214.026422 
L 313.536 213.894937 
L 316.512 213.758297 
L 319.488 213.6165 
L 322.464 213.469547 
L 325.44 213.317437 
L 328.416 213.160172 
L 331.392 212.99775 
L 334.368 212.830172 
L 337.344 212.657437 
L 340.32 212.479547 
L 343.296 212.2965 
L 346.272 212.108297 
L 349.248 211.914937 
L 352.224 211.716422 
L 355.2 211.51275 
L 358.176 211.303922 
L 361.152 211.089937 
L 364.128 210.870797 
L 367.104 210.6465 
L 370.08 210.417047 
L 373.056 210.182437 
L 376.032 209.942672 
L 379.008 209.69775 
L 381.984 209.447672 
L 384.96 209.192437 
L 387.936 208.932047 
L 390.912 208.6665 
L 393.888 208.395797 
L 396.864 208.119937 
L 399.84 207.838922 
L 402.816 207.55275 
L 405.792 207.261422 
L 408.768 206.964937 
L 411.744 206.663297 
L 414.72 206.3565 
" style="fill:none;stroke:#000000;stroke-linecap:square;stroke-width:2;"/>
   </g>
   <g id="line2d_15">
    <path clip-path="url(#p5a13aa19da)" d="M 57.6 163.044 
L 60.576 167.9115 
L 63.552 172.614 
L 66.528 177.1515 
L 69.504 181.524 
L 72.48 185.7315 
L 75.456 189.774 
L 78.432 193.6515 
L 81.408 197.364 
L 84.384 200.9115 
L 87.36 204.294 
L 90.336 207.5115 
L 93.312 210.564 
L 96.288 213.4515 
L 99.264 216.174 
L 102.24 218.7315 
L 105.216 221.124 
L 108.192 223.3515 
L 111.168 225.414 
L 114.144 227.3115 
L 117.12 229.044 
L 120.096 230.6115 
L 123.072 232.014 
L 126.048 233.2515 
L 129.024 234.324 
L 132 235.2315 
L 134.976 235.974 
L 137.952 236.5515 
L 140.928 236.964 
L 143.904 237.2115 
L 146.88 237.294 
L 149.856 237.2115 
L 152.832 236.964 
L 155.808 236.5515 
L 158.784 235.974 
L 161.76 235.2315 
L 164.736 234.324 
L 167.712 233.2515 
L 170.688 232.014 
L 173.664 230.6115 
L 176.64 229.044 
L 179.616 227.3115 
L 182.592 225.414 
L 185.568 223.3515 
L 188.544 221.124 
L 191.52 218.7315 
L 194.496 216.174 
L 197.472 213.4515 
L 200.448 210.564 
L 203.424 207.5115 
L 206.4 204.294 
L 209.376 200.9115 
L 212.352 197.364 
L 215.328 193.6515 
L 218.304 189.774 
L 221.28 185.7315 
L 224.256 181.524 
L 227.232 177.1515 
L 230.208 172.614 
L 233.184 167.9115 
L 236.16 163.044 
" style="fill:none;stroke:#0000ff;stroke-dasharray:7.4,3.2;stroke-dashoffset:0;stroke-width:2;"/>
   </g>
   <g id="line2d_16">
    <path clip-path="url(#p5a13aa19da)" d="M 57.6 45.4815 
L 60.576 69.914391 
L 63.552 93.094312 
L 66.528 115.021266 
L 69.504 135.69525 
L 72.48 155.116266 
L 75.456 173.284312 
L 78.432 190.199391 
L 81.408 205.8615 
L 84.384 220.270641 
L 87.36 233.426813 
L 90.336 245.330016 
L 93.312 255.98025 
L 96.288 265.377516 
L 99.264 273.521813 
L 102.24 280.413141 
L 105.216 286.0515 
L 108.192 290.436891 
L 111.168 293.569313 
L 114.144 295.448766 
L 117.12 296.07525 
L 120.096 295.448766 
L 123.072 293.569312 
L 126.048 290.436891 
L 129.024 286.0515 
L 132 280.413141 
L 134.976 273.521812 
L 137.952 265.377516 
L 140.928 255.98025 
L 143.904 245.330016 
L 146.88 233.426812 
L 149.856 220.270641 
L 152.832 205.8615 
L 155.808 190.199391 
L 158.784 173.284312 
L 161.76 155.116266 
L 164.736 135.69525 
L 167.712 115.021266 
L 170.688 93.094312 
L 173.664 69.914391 
L 176.64 45.4815 
" style="fill:none;stroke:#ffa500;stroke-dasharray:12.8,3.2,2,3.2;stroke-dashoffset:0;stroke-width:2;"/>
   </g>
   <g id="patch_3">
    <path d="M 57.6 307.584 
L 57.6 41.472 
" style="fill:none;stroke:#000000;stroke-linecap:square;stroke-linejoin:miter;stroke-width:0.8;"/>
   </g>
   <g id="patch_4">
    <path d="M 414.72 307.584 
L 414.72 41.472 
" style="fill:none;stroke:#000000;stroke-linecap:square;stroke-linejoin:miter;stroke-width:0.8;"/>
   </g>
   <g id="patch_5">
    <path d="M 57.6 307.584 
L 414.72 307.584 
" style="fill:none;stroke:#000000;stroke-linecap:square;stroke-linejoin:miter;stroke-width:0.8;"/>
   </g>
   <g id="patch_6">
    <path d="M 57.6 41.472 
L 414.72 41.472 
" style="fill:none;stroke:#000000;stroke-linecap:square;stroke-linejoin:miter;stroke-width:0.8;"/>
   </g>
   <g id="text_16">
    <!-- 横向急动度 -->
    <g transform="translate(211.16 35.472)scale(0.1 -0.1)">
     <defs>
      <path d="M 7.03125 62.890625 
L 17.578125 62.890625 
L 17.578125 80.859375 
L 25 80.859375 
L 25 62.890625 
L 35.15625 62.890625 
L 35.15625 55.46875 
L 25 55.46875 
L 25 50.390625 
Q 31.25 41.40625 35.9375 33.203125 
L 30.859375 25.78125 
Q 28.125 33.203125 25 39.0625 
L 25 -8.984375 
L 17.578125 -8.984375 
L 17.578125 32.03125 
Q 14.453125 21.484375 9.375 12.109375 
L 3.90625 17.578125 
Q 13.671875 34.375 16.796875 55.46875 
L 7.03125 55.46875 
z
M 39.84375 72.265625 
L 50.78125 72.265625 
L 50.78125 80.859375 
L 58.203125 80.859375 
L 58.203125 72.265625 
L 73.046875 72.265625 
L 73.046875 80.859375 
L 80.46875 80.859375 
L 80.46875 72.265625 
L 91.40625 72.265625 
L 91.40625 65.625 
L 80.46875 65.625 
L 80.46875 56.640625 
L 94.53125 56.640625 
L 94.53125 50 
L 68.75 50 
L 68.75 43.75 
L 89.453125 43.75 
L 89.453125 7.421875 
L 41.015625 7.421875 
L 41.015625 43.75 
L 61.71875 43.75 
L 61.71875 50 
L 36.328125 50 
L 36.328125 56.640625 
L 50.78125 56.640625 
L 50.78125 65.625 
L 39.84375 65.625 
z
M 58.203125 56.640625 
L 73.046875 56.640625 
L 73.046875 65.625 
L 58.203125 65.625 
z
M 48.046875 28.515625 
L 61.71875 28.515625 
L 61.71875 37.109375 
L 48.046875 37.109375 
z
M 68.75 37.109375 
L 68.75 28.515625 
L 82.03125 28.515625 
L 82.03125 37.109375 
z
M 48.046875 14.0625 
L 61.71875 14.0625 
L 61.71875 22.265625 
L 48.046875 22.265625 
z
M 68.75 22.265625 
L 68.75 14.0625 
L 82.03125 14.0625 
L 82.03125 22.265625 
z
M 54.296875 5.46875 
L 59.375 0 
Q 52.34375 -5.078125 37.890625 -8.984375 
L 34.765625 -1.953125 
Q 46.09375 0.390625 54.296875 5.46875 
z
M 75 5.46875 
Q 84.765625 2.734375 94.140625 -2.734375 
L 89.84375 -9.765625 
Q 80.46875 -3.125 70.703125 0 
z
" id="WenQuanYiMicroHei-27178"/>
      <path d="M 39.84375 81.25 
L 49.21875 78.515625 
Q 46.875 73.4375 42.578125 67.1875 
L 89.0625 67.1875 
L 89.0625 1.171875 
Q 89.0625 -3.515625 86.328125 -6.046875 
Q 83.59375 -8.59375 78.515625 -8.59375 
Q 73.4375 -8.59375 66.796875 -7.421875 
L 65.234375 0.390625 
Q 73.828125 -0.78125 78.125 -0.78125 
Q 80.859375 -0.78125 80.859375 3.125 
L 80.859375 59.765625 
L 19.140625 59.765625 
L 19.140625 -8.984375 
L 10.9375 -8.984375 
L 10.9375 67.1875 
L 33.203125 67.1875 
Q 37.109375 73.046875 39.84375 81.25 
z
M 30.46875 46.875 
L 69.140625 46.875 
L 69.140625 13.28125 
L 30.46875 13.28125 
z
M 37.890625 20.3125 
L 62.109375 20.3125 
L 62.109375 39.84375 
L 37.890625 39.84375 
z
" id="WenQuanYiMicroHei-21521"/>
      <path d="M 47.65625 21.09375 
Q 54.6875 17.1875 60.546875 11.71875 
L 55.078125 5.078125 
Q 49.21875 11.328125 42.578125 15.625 
z
M 80.46875 19.140625 
Q 88.28125 11.328125 95.703125 1.171875 
L 88.671875 -3.90625 
Q 82.8125 5.078125 74.21875 14.453125 
z
M 26.953125 18.75 
L 34.765625 18.75 
L 34.765625 2.34375 
Q 34.765625 0.78125 36.90625 0 
Q 39.0625 -0.78125 49.21875 -0.78125 
Q 62.5 -0.78125 65.234375 0 
Q 67.96875 0.78125 68.75 2.34375 
Q 69.53125 3.125 69.921875 8.984375 
L 77.734375 6.25 
Q 76.953125 -2.734375 73.234375 -5.46875 
Q 69.53125 -8.203125 49.21875 -8.203125 
Q 34.765625 -8.203125 30.859375 -6.4375 
Q 26.953125 -4.6875 26.953125 -0.390625 
z
M 16.015625 17.578125 
L 23.046875 13.671875 
Q 17.1875 0.390625 10.546875 -6.25 
L 4.296875 -0.78125 
Q 11.71875 7.03125 16.015625 17.578125 
z
M 32.8125 81.25 
L 40.625 78.515625 
L 37.109375 73.4375 
L 67.96875 73.4375 
L 67.96875 66.796875 
Q 64.84375 62.5 61.71875 58.59375 
L 82.8125 58.59375 
L 82.8125 22.265625 
L 16.40625 22.265625 
L 16.40625 29.296875 
L 75.390625 29.296875 
L 75.390625 37.5 
L 16.796875 37.5 
L 16.796875 44.140625 
L 75.390625 44.140625 
L 75.390625 51.5625 
L 19.921875 51.5625 
L 19.921875 54.6875 
Q 14.84375 50.78125 9.765625 47.265625 
L 5.46875 54.296875 
Q 24.609375 67.1875 32.8125 81.25 
z
M 24.21875 58.59375 
L 51.5625 58.59375 
Q 55.078125 62.5 57.8125 66.40625 
L 31.640625 66.40625 
Q 28.515625 62.890625 24.21875 58.59375 
z
" id="WenQuanYiMicroHei-24613"/>
      <path d="M 49.609375 63.671875 
L 61.71875 63.671875 
L 61.71875 80.859375 
L 69.53125 80.859375 
L 69.53125 63.671875 
L 92.578125 63.671875 
Q 92.1875 8.203125 89.453125 0.390625 
Q 86.71875 -7.421875 80.078125 -7.421875 
Q 75 -7.421875 68.359375 -6.25 
L 67.1875 1.5625 
Q 75 0.390625 79.6875 0.390625 
Q 82.03125 0.390625 82.8125 7.03125 
Q 85.15625 22.265625 85.15625 56.25 
L 69.53125 56.25 
Q 69.140625 8.984375 46.875 -8.984375 
L 41.40625 -3.125 
Q 61.328125 13.671875 61.71875 56.25 
L 49.609375 56.25 
z
M 8.984375 73.828125 
L 42.1875 73.828125 
L 42.1875 66.796875 
L 8.984375 66.796875 
z
M 5.859375 51.171875 
L 45.3125 51.171875 
L 45.3125 43.75 
L 28.125 43.75 
Q 21.484375 21.09375 13.671875 10.9375 
Q 25.390625 12.109375 38.28125 16.40625 
Q 35.9375 23.828125 32.421875 30.46875 
L 39.453125 32.421875 
Q 45.703125 21.09375 48.828125 7.03125 
L 41.796875 5.078125 
Q 41.015625 7.421875 40.625 9.765625 
Q 25 4.6875 7.421875 3.125 
L 5.078125 10.15625 
Q 13.671875 21.875 19.53125 43.75 
L 5.859375 43.75 
z
" id="WenQuanYiMicroHei-21160"/>
      <path d="M 53.90625 81.25 
Q 56.25 77.734375 57.8125 73.046875 
L 92.578125 73.046875 
L 92.578125 66.015625 
L 21.484375 66.015625 
L 21.484375 35.546875 
Q 21.484375 10.546875 11.328125 -8.984375 
L 3.90625 -4.296875 
Q 9.375 7.03125 11.515625 16.203125 
Q 13.671875 25.390625 13.671875 38.28125 
L 13.671875 73.046875 
L 49.21875 73.046875 
Q 48.046875 76.171875 46.09375 78.90625 
z
M 23.4375 55.859375 
L 38.28125 55.859375 
L 38.28125 63.28125 
L 45.703125 63.28125 
L 45.703125 55.859375 
L 69.53125 55.859375 
L 69.53125 63.28125 
L 76.953125 63.28125 
L 76.953125 55.859375 
L 91.796875 55.859375 
L 91.796875 49.21875 
L 76.953125 49.21875 
L 76.953125 33.59375 
L 38.28125 33.59375 
L 38.28125 49.21875 
L 23.4375 49.21875 
z
M 69.53125 40.234375 
L 69.53125 49.21875 
L 45.703125 49.21875 
L 45.703125 40.234375 
z
M 27.34375 26.953125 
L 85.546875 26.953125 
L 85.546875 21.09375 
Q 78.90625 11.328125 66.40625 4.296875 
Q 76.953125 0 95.3125 -0.78125 
L 92.96875 -8.59375 
Q 70.703125 -7.8125 57.03125 -0.390625 
Q 42.578125 -6.25 23.828125 -9.375 
L 19.140625 -2.34375 
Q 36.71875 0 48.828125 4.296875 
Q 39.84375 10.15625 32.421875 20.3125 
L 27.34375 20.3125 
z
M 42.1875 20.3125 
Q 49.609375 12.109375 57.8125 8.203125 
Q 67.96875 13.28125 74.21875 20.3125 
z
" id="WenQuanYiMicroHei-24230"/>
     </defs>
     <use xlink:href="#WenQuanYiMicroHei-27178"/>
     <use x="100" xlink:href="#WenQuanYiMicroHei-21521"/>
     <use x="200" xlink:href="#WenQuanYiMicroHei-24613"/>
     <use x="300" xlink:href="#WenQuanYiMicroHei-21160"/>
     <use x="400" xlink:href="#WenQuanYiMicroHei-24230"/>
    </g>
   </g>
   <g id="legend_1">
    <g id="patch_7">
     <path d="M 324.459063 93.506375 
L 407.72 93.506375 
Q 409.72 93.506375 409.72 91.506375 
L 409.72 48.472 
Q 409.72 46.472 407.72 46.472 
L 324.459063 46.472 
Q 322.459063 46.472 322.459063 48.472 
L 322.459063 91.506375 
Q 322.459063 93.506375 324.459063 93.506375 
z
" style="fill:#ffffff;opacity:0.8;stroke:#cccccc;stroke-linejoin:miter;"/>
    </g>
    <g id="line2d_17">
     <path d="M 326.459063 54.570438 
L 346.459063 54.570438 
" style="fill:none;stroke:#000000;stroke-linecap:square;stroke-width:2;"/>
    </g>
    <g id="line2d_18"/>
    <g id="text_17">
     <!-- vx=5/s -->
     <g transform="translate(354.459063 58.070438)scale(0.1 -0.1)">
      <defs>
       <path d="M 2.984375 54.6875 
L 12.5 54.6875 
L 29.59375 8.796875 
L 46.6875 54.6875 
L 56.203125 54.6875 
L 35.6875 0 
L 23.484375 0 
z
" id="DejaVuSans-118"/>
       <path d="M 54.890625 54.6875 
L 35.109375 28.078125 
L 55.90625 0 
L 45.3125 0 
L 29.390625 21.484375 
L 13.484375 0 
L 2.875 0 
L 24.125 28.609375 
L 4.6875 54.6875 
L 15.28125 54.6875 
L 29.78125 35.203125 
L 44.28125 54.6875 
z
" id="DejaVuSans-120"/>
       <path d="M 10.59375 45.40625 
L 73.1875 45.40625 
L 73.1875 37.203125 
L 10.59375 37.203125 
z
M 10.59375 25.484375 
L 73.1875 25.484375 
L 73.1875 17.1875 
L 10.59375 17.1875 
z
" id="DejaVuSans-61"/>
       <path d="M 10.796875 72.90625 
L 49.515625 72.90625 
L 49.515625 64.59375 
L 19.828125 64.59375 
L 19.828125 46.734375 
Q 21.96875 47.46875 24.109375 47.828125 
Q 26.265625 48.1875 28.421875 48.1875 
Q 40.625 48.1875 47.75 41.5 
Q 54.890625 34.8125 54.890625 23.390625 
Q 54.890625 11.625 47.5625 5.09375 
Q 40.234375 -1.421875 26.90625 -1.421875 
Q 22.3125 -1.421875 17.546875 -0.640625 
Q 12.796875 0.140625 7.71875 1.703125 
L 7.71875 11.625 
Q 12.109375 9.234375 16.796875 8.0625 
Q 21.484375 6.890625 26.703125 6.890625 
Q 35.15625 6.890625 40.078125 11.328125 
Q 45.015625 15.765625 45.015625 23.390625 
Q 45.015625 31 40.078125 35.4375 
Q 35.15625 39.890625 26.703125 39.890625 
Q 22.75 39.890625 18.8125 39.015625 
Q 14.890625 38.140625 10.796875 36.28125 
z
" id="DejaVuSans-53"/>
      </defs>
      <use xlink:href="#DejaVuSans-118"/>
      <use x="59.179688" xlink:href="#DejaVuSans-120"/>
      <use x="118.359375" xlink:href="#DejaVuSans-61"/>
      <use x="202.148438" xlink:href="#DejaVuSans-53"/>
      <use x="265.771484" xlink:href="#DejaVuSans-47"/>
      <use x="299.462891" xlink:href="#DejaVuSans-115"/>
     </g>
    </g>
    <g id="line2d_19">
     <path d="M 326.459063 69.248563 
L 346.459063 69.248563 
" style="fill:none;stroke:#0000ff;stroke-dasharray:7.4,3.2;stroke-dashoffset:0;stroke-width:2;"/>
    </g>
    <g id="line2d_20"/>
    <g id="text_18">
     <!-- vx=10m/s -->
     <g transform="translate(354.459063 72.748563)scale(0.1 -0.1)">
      <use xlink:href="#DejaVuSans-118"/>
      <use x="59.179688" xlink:href="#DejaVuSans-120"/>
      <use x="118.359375" xlink:href="#DejaVuSans-61"/>
      <use x="202.148438" xlink:href="#DejaVuSans-49"/>
      <use x="265.771484" xlink:href="#DejaVuSans-48"/>
      <use x="329.394531" xlink:href="#DejaVuSans-109"/>
      <use x="426.806641" xlink:href="#DejaVuSans-47"/>
      <use x="460.498047" xlink:href="#DejaVuSans-115"/>
     </g>
    </g>
    <g id="line2d_21">
     <path d="M 326.459063 83.926688 
L 346.459063 83.926688 
" style="fill:none;stroke:#ffa500;stroke-dasharray:12.8,3.2,2,3.2;stroke-dashoffset:0;stroke-width:2;"/>
    </g>
    <g id="line2d_22"/>
    <g id="text_19">
     <!-- vx=15m/s -->
     <g transform="translate(354.459063 87.426688)scale(0.1 -0.1)">
      <use xlink:href="#DejaVuSans-118"/>
      <use x="59.179688" xlink:href="#DejaVuSans-120"/>
      <use x="118.359375" xlink:href="#DejaVuSans-61"/>
      <use x="202.148438" xlink:href="#DejaVuSans-49"/>
      <use x="265.771484" xlink:href="#DejaVuSans-53"/>
      <use x="329.394531" xlink:href="#DejaVuSans-109"/>
      <use x="426.806641" xlink:href="#DejaVuSans-47"/>
      <use x="460.498047" xlink:href="#DejaVuSans-115"/>
     </g>
    </g>
   </g>
  </g>
 </g>
 <defs>
  <clipPath id="p5a13aa19da">
   <rect height="266.112" width="357.12" x="57.6" y="41.472"/>
  </clipPath>
 </defs>
</svg>
