<?xml version="1.0" encoding="utf-8" standalone="no"?>
<!DOCTYPE svg PUBLIC "-//W3C//DTD SVG 1.1//EN"
  "http://www.w3.org/Graphics/SVG/1.1/DTD/svg11.dtd">
<!-- Created with matplotlib (https://matplotlib.org/) -->
<svg height="345.6pt" version="1.1" viewBox="0 0 460.8 345.6" width="460.8pt" xmlns="http://www.w3.org/2000/svg" xmlns:xlink="http://www.w3.org/1999/xlink">
 <metadata>
  <rdf:RDF xmlns:cc="http://creativecommons.org/ns#" xmlns:dc="http://purl.org/dc/elements/1.1/" xmlns:rdf="http://www.w3.org/1999/02/22-rdf-syntax-ns#">
   <cc:Work>
    <dc:type rdf:resource="http://purl.org/dc/dcmitype/StillImage"/>
    <dc:date>2022-01-03T14:39:48.446485</dc:date>
    <dc:format>image/svg+xml</dc:format>
    <dc:creator>
     <cc:Agent>
      <dc:title>Matplotlib v3.3.1, https://matplotlib.org/</dc:title>
     </cc:Agent>
    </dc:creator>
   </cc:Work>
  </rdf:RDF>
 </metadata>
 <defs>
  <style type="text/css">*{stroke-linecap:butt;stroke-linejoin:round;}</style>
 </defs>
 <g id="figure_1">
  <g id="patch_1">
   <path d="M 0 345.6 
L 460.8 345.6 
L 460.8 0 
L 0 0 
z
" style="fill:#ffffff;"/>
  </g>
  <g id="axes_1">
   <g id="patch_2">
    <path d="M 57.6 307.584 
L 414.72 307.584 
L 414.72 41.472 
L 57.6 41.472 
z
" style="fill:#ffffff;"/>
   </g>
   <g id="matplotlib.axis_1">
    <g id="xtick_1">
     <g id="line2d_1">
      <defs>
       <path d="M 0 0 
L 0 3.5 
" id="m8d20cf7c82" style="stroke:#000000;stroke-width:0.8;"/>
      </defs>
      <g>
       <use style="stroke:#000000;stroke-width:0.8;" x="57.6" xlink:href="#m8d20cf7c82" y="307.584"/>
      </g>
     </g>
     <g id="text_1">
      <!-- 0 -->
      <g transform="translate(54.41875 322.182437)scale(0.1 -0.1)">
       <defs>
        <path d="M 31.78125 66.40625 
Q 24.171875 66.40625 20.328125 58.90625 
Q 16.5 51.421875 16.5 36.375 
Q 16.5 21.390625 20.328125 13.890625 
Q 24.171875 6.390625 31.78125 6.390625 
Q 39.453125 6.390625 43.28125 13.890625 
Q 47.125 21.390625 47.125 36.375 
Q 47.125 51.421875 43.28125 58.90625 
Q 39.453125 66.40625 31.78125 66.40625 
z
M 31.78125 74.21875 
Q 44.046875 74.21875 50.515625 64.515625 
Q 56.984375 54.828125 56.984375 36.375 
Q 56.984375 17.96875 50.515625 8.265625 
Q 44.046875 -1.421875 31.78125 -1.421875 
Q 19.53125 -1.421875 13.0625 8.265625 
Q 6.59375 17.96875 6.59375 36.375 
Q 6.59375 54.828125 13.0625 64.515625 
Q 19.53125 74.21875 31.78125 74.21875 
z
" id="DejaVuSans-48"/>
       </defs>
       <use xlink:href="#DejaVuSans-48"/>
      </g>
     </g>
    </g>
    <g id="xtick_2">
     <g id="line2d_2">
      <g>
       <use style="stroke:#000000;stroke-width:0.8;" x="129.024" xlink:href="#m8d20cf7c82" y="307.584"/>
      </g>
     </g>
     <g id="text_2">
      <!-- 1 -->
      <g transform="translate(125.84275 322.182437)scale(0.1 -0.1)">
       <defs>
        <path d="M 12.40625 8.296875 
L 28.515625 8.296875 
L 28.515625 63.921875 
L 10.984375 60.40625 
L 10.984375 69.390625 
L 28.421875 72.90625 
L 38.28125 72.90625 
L 38.28125 8.296875 
L 54.390625 8.296875 
L 54.390625 0 
L 12.40625 0 
z
" id="DejaVuSans-49"/>
       </defs>
       <use xlink:href="#DejaVuSans-49"/>
      </g>
     </g>
    </g>
    <g id="xtick_3">
     <g id="line2d_3">
      <g>
       <use style="stroke:#000000;stroke-width:0.8;" x="200.448" xlink:href="#m8d20cf7c82" y="307.584"/>
      </g>
     </g>
     <g id="text_3">
      <!-- 2 -->
      <g transform="translate(197.26675 322.182437)scale(0.1 -0.1)">
       <defs>
        <path d="M 19.1875 8.296875 
L 53.609375 8.296875 
L 53.609375 0 
L 7.328125 0 
L 7.328125 8.296875 
Q 12.9375 14.109375 22.625 23.890625 
Q 32.328125 33.6875 34.8125 36.53125 
Q 39.546875 41.84375 41.421875 45.53125 
Q 43.3125 49.21875 43.3125 52.78125 
Q 43.3125 58.59375 39.234375 62.25 
Q 35.15625 65.921875 28.609375 65.921875 
Q 23.96875 65.921875 18.8125 64.3125 
Q 13.671875 62.703125 7.8125 59.421875 
L 7.8125 69.390625 
Q 13.765625 71.78125 18.9375 73 
Q 24.125 74.21875 28.421875 74.21875 
Q 39.75 74.21875 46.484375 68.546875 
Q 53.21875 62.890625 53.21875 53.421875 
Q 53.21875 48.921875 51.53125 44.890625 
Q 49.859375 40.875 45.40625 35.40625 
Q 44.1875 33.984375 37.640625 27.21875 
Q 31.109375 20.453125 19.1875 8.296875 
z
" id="DejaVuSans-50"/>
       </defs>
       <use xlink:href="#DejaVuSans-50"/>
      </g>
     </g>
    </g>
    <g id="xtick_4">
     <g id="line2d_4">
      <g>
       <use style="stroke:#000000;stroke-width:0.8;" x="271.872" xlink:href="#m8d20cf7c82" y="307.584"/>
      </g>
     </g>
     <g id="text_4">
      <!-- 3 -->
      <g transform="translate(268.69075 322.182437)scale(0.1 -0.1)">
       <defs>
        <path d="M 40.578125 39.3125 
Q 47.65625 37.796875 51.625 33 
Q 55.609375 28.21875 55.609375 21.1875 
Q 55.609375 10.40625 48.1875 4.484375 
Q 40.765625 -1.421875 27.09375 -1.421875 
Q 22.515625 -1.421875 17.65625 -0.515625 
Q 12.796875 0.390625 7.625 2.203125 
L 7.625 11.71875 
Q 11.71875 9.328125 16.59375 8.109375 
Q 21.484375 6.890625 26.8125 6.890625 
Q 36.078125 6.890625 40.9375 10.546875 
Q 45.796875 14.203125 45.796875 21.1875 
Q 45.796875 27.640625 41.28125 31.265625 
Q 36.765625 34.90625 28.71875 34.90625 
L 20.21875 34.90625 
L 20.21875 43.015625 
L 29.109375 43.015625 
Q 36.375 43.015625 40.234375 45.921875 
Q 44.09375 48.828125 44.09375 54.296875 
Q 44.09375 59.90625 40.109375 62.90625 
Q 36.140625 65.921875 28.71875 65.921875 
Q 24.65625 65.921875 20.015625 65.03125 
Q 15.375 64.15625 9.8125 62.3125 
L 9.8125 71.09375 
Q 15.4375 72.65625 20.34375 73.4375 
Q 25.25 74.21875 29.59375 74.21875 
Q 40.828125 74.21875 47.359375 69.109375 
Q 53.90625 64.015625 53.90625 55.328125 
Q 53.90625 49.265625 50.4375 45.09375 
Q 46.96875 40.921875 40.578125 39.3125 
z
" id="DejaVuSans-51"/>
       </defs>
       <use xlink:href="#DejaVuSans-51"/>
      </g>
     </g>
    </g>
    <g id="xtick_5">
     <g id="line2d_5">
      <g>
       <use style="stroke:#000000;stroke-width:0.8;" x="343.296" xlink:href="#m8d20cf7c82" y="307.584"/>
      </g>
     </g>
     <g id="text_5">
      <!-- 4 -->
      <g transform="translate(340.11475 322.182437)scale(0.1 -0.1)">
       <defs>
        <path d="M 37.796875 64.3125 
L 12.890625 25.390625 
L 37.796875 25.390625 
z
M 35.203125 72.90625 
L 47.609375 72.90625 
L 47.609375 25.390625 
L 58.015625 25.390625 
L 58.015625 17.1875 
L 47.609375 17.1875 
L 47.609375 0 
L 37.796875 0 
L 37.796875 17.1875 
L 4.890625 17.1875 
L 4.890625 26.703125 
z
" id="DejaVuSans-52"/>
       </defs>
       <use xlink:href="#DejaVuSans-52"/>
      </g>
     </g>
    </g>
    <g id="xtick_6">
     <g id="line2d_6">
      <g>
       <use style="stroke:#000000;stroke-width:0.8;" x="414.72" xlink:href="#m8d20cf7c82" y="307.584"/>
      </g>
     </g>
     <g id="text_6">
      <!-- 5 -->
      <g transform="translate(411.53875 322.182437)scale(0.1 -0.1)">
       <defs>
        <path d="M 10.796875 72.90625 
L 49.515625 72.90625 
L 49.515625 64.59375 
L 19.828125 64.59375 
L 19.828125 46.734375 
Q 21.96875 47.46875 24.109375 47.828125 
Q 26.265625 48.1875 28.421875 48.1875 
Q 40.625 48.1875 47.75 41.5 
Q 54.890625 34.8125 54.890625 23.390625 
Q 54.890625 11.625 47.5625 5.09375 
Q 40.234375 -1.421875 26.90625 -1.421875 
Q 22.3125 -1.421875 17.546875 -0.640625 
Q 12.796875 0.140625 7.71875 1.703125 
L 7.71875 11.625 
Q 12.109375 9.234375 16.796875 8.0625 
Q 21.484375 6.890625 26.703125 6.890625 
Q 35.15625 6.890625 40.078125 11.328125 
Q 45.015625 15.765625 45.015625 23.390625 
Q 45.015625 31 40.078125 35.4375 
Q 35.15625 39.890625 26.703125 39.890625 
Q 22.75 39.890625 18.8125 39.015625 
Q 14.890625 38.140625 10.796875 36.28125 
z
" id="DejaVuSans-53"/>
       </defs>
       <use xlink:href="#DejaVuSans-53"/>
      </g>
     </g>
    </g>
    <g id="text_7">
     <!-- t/s -->
     <g transform="translate(229.910781 335.860562)scale(0.1 -0.1)">
      <defs>
       <path d="M 18.3125 70.21875 
L 18.3125 54.6875 
L 36.8125 54.6875 
L 36.8125 47.703125 
L 18.3125 47.703125 
L 18.3125 18.015625 
Q 18.3125 11.328125 20.140625 9.421875 
Q 21.96875 7.515625 27.59375 7.515625 
L 36.8125 7.515625 
L 36.8125 0 
L 27.59375 0 
Q 17.1875 0 13.234375 3.875 
Q 9.28125 7.765625 9.28125 18.015625 
L 9.28125 47.703125 
L 2.6875 47.703125 
L 2.6875 54.6875 
L 9.28125 54.6875 
L 9.28125 70.21875 
z
" id="DejaVuSans-116"/>
       <path d="M 25.390625 72.90625 
L 33.6875 72.90625 
L 8.296875 -9.28125 
L 0 -9.28125 
z
" id="DejaVuSans-47"/>
       <path d="M 44.28125 53.078125 
L 44.28125 44.578125 
Q 40.484375 46.53125 36.375 47.5 
Q 32.28125 48.484375 27.875 48.484375 
Q 21.1875 48.484375 17.84375 46.4375 
Q 14.5 44.390625 14.5 40.28125 
Q 14.5 37.15625 16.890625 35.375 
Q 19.28125 33.59375 26.515625 31.984375 
L 29.59375 31.296875 
Q 39.15625 29.25 43.1875 25.515625 
Q 47.21875 21.78125 47.21875 15.09375 
Q 47.21875 7.46875 41.1875 3.015625 
Q 35.15625 -1.421875 24.609375 -1.421875 
Q 20.21875 -1.421875 15.453125 -0.5625 
Q 10.6875 0.296875 5.421875 2 
L 5.421875 11.28125 
Q 10.40625 8.6875 15.234375 7.390625 
Q 20.0625 6.109375 24.8125 6.109375 
Q 31.15625 6.109375 34.5625 8.28125 
Q 37.984375 10.453125 37.984375 14.40625 
Q 37.984375 18.0625 35.515625 20.015625 
Q 33.0625 21.96875 24.703125 23.78125 
L 21.578125 24.515625 
Q 13.234375 26.265625 9.515625 29.90625 
Q 5.8125 33.546875 5.8125 39.890625 
Q 5.8125 47.609375 11.28125 51.796875 
Q 16.75 56 26.8125 56 
Q 31.78125 56 36.171875 55.265625 
Q 40.578125 54.546875 44.28125 53.078125 
z
" id="DejaVuSans-115"/>
      </defs>
      <use xlink:href="#DejaVuSans-116"/>
      <use x="39.208984" xlink:href="#DejaVuSans-47"/>
      <use x="72.900391" xlink:href="#DejaVuSans-115"/>
     </g>
    </g>
   </g>
   <g id="matplotlib.axis_2">
    <g id="ytick_1">
     <g id="line2d_7">
      <defs>
       <path d="M 0 0 
L -3.5 0 
" id="m4e3d0b3c6d" style="stroke:#000000;stroke-width:0.8;"/>
      </defs>
      <g>
       <use style="stroke:#000000;stroke-width:0.8;" x="57.6" xlink:href="#m4e3d0b3c6d" y="307.584"/>
      </g>
     </g>
     <g id="text_8">
      <!-- 0.0 -->
      <g transform="translate(34.696875 311.383219)scale(0.1 -0.1)">
       <defs>
        <path d="M 10.6875 12.40625 
L 21 12.40625 
L 21 0 
L 10.6875 0 
z
" id="DejaVuSans-46"/>
       </defs>
       <use xlink:href="#DejaVuSans-48"/>
       <use x="63.623047" xlink:href="#DejaVuSans-46"/>
       <use x="95.410156" xlink:href="#DejaVuSans-48"/>
      </g>
     </g>
    </g>
    <g id="ytick_2">
     <g id="line2d_8">
      <g>
       <use style="stroke:#000000;stroke-width:0.8;" x="57.6" xlink:href="#m4e3d0b3c6d" y="272.1024"/>
      </g>
     </g>
     <g id="text_9">
      <!-- 0.5 -->
      <g transform="translate(34.696875 275.901619)scale(0.1 -0.1)">
       <use xlink:href="#DejaVuSans-48"/>
       <use x="63.623047" xlink:href="#DejaVuSans-46"/>
       <use x="95.410156" xlink:href="#DejaVuSans-53"/>
      </g>
     </g>
    </g>
    <g id="ytick_3">
     <g id="line2d_9">
      <g>
       <use style="stroke:#000000;stroke-width:0.8;" x="57.6" xlink:href="#m4e3d0b3c6d" y="236.6208"/>
      </g>
     </g>
     <g id="text_10">
      <!-- 1.0 -->
      <g transform="translate(34.696875 240.420019)scale(0.1 -0.1)">
       <use xlink:href="#DejaVuSans-49"/>
       <use x="63.623047" xlink:href="#DejaVuSans-46"/>
       <use x="95.410156" xlink:href="#DejaVuSans-48"/>
      </g>
     </g>
    </g>
    <g id="ytick_4">
     <g id="line2d_10">
      <g>
       <use style="stroke:#000000;stroke-width:0.8;" x="57.6" xlink:href="#m4e3d0b3c6d" y="201.1392"/>
      </g>
     </g>
     <g id="text_11">
      <!-- 1.5 -->
      <g transform="translate(34.696875 204.938419)scale(0.1 -0.1)">
       <use xlink:href="#DejaVuSans-49"/>
       <use x="63.623047" xlink:href="#DejaVuSans-46"/>
       <use x="95.410156" xlink:href="#DejaVuSans-53"/>
      </g>
     </g>
    </g>
    <g id="ytick_5">
     <g id="line2d_11">
      <g>
       <use style="stroke:#000000;stroke-width:0.8;" x="57.6" xlink:href="#m4e3d0b3c6d" y="165.6576"/>
      </g>
     </g>
     <g id="text_12">
      <!-- 2.0 -->
      <g transform="translate(34.696875 169.456819)scale(0.1 -0.1)">
       <use xlink:href="#DejaVuSans-50"/>
       <use x="63.623047" xlink:href="#DejaVuSans-46"/>
       <use x="95.410156" xlink:href="#DejaVuSans-48"/>
      </g>
     </g>
    </g>
    <g id="ytick_6">
     <g id="line2d_12">
      <g>
       <use style="stroke:#000000;stroke-width:0.8;" x="57.6" xlink:href="#m4e3d0b3c6d" y="130.176"/>
      </g>
     </g>
     <g id="text_13">
      <!-- 2.5 -->
      <g transform="translate(34.696875 133.975219)scale(0.1 -0.1)">
       <use xlink:href="#DejaVuSans-50"/>
       <use x="63.623047" xlink:href="#DejaVuSans-46"/>
       <use x="95.410156" xlink:href="#DejaVuSans-53"/>
      </g>
     </g>
    </g>
    <g id="ytick_7">
     <g id="line2d_13">
      <g>
       <use style="stroke:#000000;stroke-width:0.8;" x="57.6" xlink:href="#m4e3d0b3c6d" y="94.6944"/>
      </g>
     </g>
     <g id="text_14">
      <!-- 3.0 -->
      <g transform="translate(34.696875 98.493619)scale(0.1 -0.1)">
       <use xlink:href="#DejaVuSans-51"/>
       <use x="63.623047" xlink:href="#DejaVuSans-46"/>
       <use x="95.410156" xlink:href="#DejaVuSans-48"/>
      </g>
     </g>
    </g>
    <g id="ytick_8">
     <g id="line2d_14">
      <g>
       <use style="stroke:#000000;stroke-width:0.8;" x="57.6" xlink:href="#m4e3d0b3c6d" y="59.2128"/>
      </g>
     </g>
     <g id="text_15">
      <!-- 3.5 -->
      <g transform="translate(34.696875 63.012019)scale(0.1 -0.1)">
       <use xlink:href="#DejaVuSans-51"/>
       <use x="63.623047" xlink:href="#DejaVuSans-46"/>
       <use x="95.410156" xlink:href="#DejaVuSans-53"/>
      </g>
     </g>
    </g>
    <g id="text_16">
     <!-- Y/m -->
     <g transform="translate(28.617188 184.136594)rotate(-90)scale(0.1 -0.1)">
      <defs>
       <path d="M -0.203125 72.90625 
L 10.40625 72.90625 
L 30.609375 42.921875 
L 50.6875 72.90625 
L 61.28125 72.90625 
L 35.5 34.71875 
L 35.5 0 
L 25.59375 0 
L 25.59375 34.71875 
z
" id="DejaVuSans-89"/>
       <path d="M 52 44.1875 
Q 55.375 50.25 60.0625 53.125 
Q 64.75 56 71.09375 56 
Q 79.640625 56 84.28125 50.015625 
Q 88.921875 44.046875 88.921875 33.015625 
L 88.921875 0 
L 79.890625 0 
L 79.890625 32.71875 
Q 79.890625 40.578125 77.09375 44.375 
Q 74.3125 48.1875 68.609375 48.1875 
Q 61.625 48.1875 57.5625 43.546875 
Q 53.515625 38.921875 53.515625 30.90625 
L 53.515625 0 
L 44.484375 0 
L 44.484375 32.71875 
Q 44.484375 40.625 41.703125 44.40625 
Q 38.921875 48.1875 33.109375 48.1875 
Q 26.21875 48.1875 22.15625 43.53125 
Q 18.109375 38.875 18.109375 30.90625 
L 18.109375 0 
L 9.078125 0 
L 9.078125 54.6875 
L 18.109375 54.6875 
L 18.109375 46.1875 
Q 21.1875 51.21875 25.484375 53.609375 
Q 29.78125 56 35.6875 56 
Q 41.65625 56 45.828125 52.96875 
Q 50 49.953125 52 44.1875 
z
" id="DejaVuSans-109"/>
      </defs>
      <use xlink:href="#DejaVuSans-89"/>
      <use x="61.083984" xlink:href="#DejaVuSans-47"/>
      <use x="94.775391" xlink:href="#DejaVuSans-109"/>
     </g>
    </g>
   </g>
   <g id="line2d_15">
    <path clip-path="url(#p4fbae61f7c)" d="M 57.6 307.584 
L 64.7424 307.563345 
L 71.8848 307.423744 
L 79.0272 307.059689 
L 86.1696 306.379774 
L 93.312 305.306081 
L 100.4544 303.773569 
L 107.5968 301.729458 
L 114.7392 299.132617 
L 121.8816 295.952952 
L 129.024 292.170793 
L 136.1664 287.776278 
L 143.3088 282.768743 
L 150.4512 277.156108 
L 157.5936 270.954263 
L 164.736 264.186455 
L 171.8784 256.882676 
L 179.0208 249.079049 
L 186.1632 240.817216 
L 193.3056 232.143723 
L 200.448 223.109407 
L 207.5904 213.768785 
L 214.7328 204.179441 
L 221.8752 194.401408 
L 229.0176 184.496561 
L 236.16 174.528 
L 243.3024 164.559439 
L 250.4448 154.654592 
L 257.5872 144.876559 
L 264.7296 135.287215 
L 271.872 125.946593 
L 279.0144 116.912277 
L 286.1568 108.238784 
L 293.2992 99.976951 
L 300.4416 92.173324 
L 307.584 84.869545 
L 314.7264 78.101737 
L 321.8688 71.899892 
L 329.0112 66.287257 
L 336.1536 61.279722 
L 343.296 56.885207 
L 350.4384 53.103048 
L 357.5808 49.923383 
L 364.7232 47.326542 
L 371.8656 45.282431 
L 379.008 43.749919 
L 386.1504 42.676226 
L 393.2928 41.996311 
L 400.4352 41.632256 
L 407.5776 41.492655 
L 414.72 41.472 
" style="fill:none;stroke:#000000;stroke-linecap:square;stroke-width:2;"/>
   </g>
   <g id="line2d_16">
    <path clip-path="url(#p4fbae61f7c)" d="M 57.6 307.584 
L 64.7424 307.543964 
L 71.8848 307.275809 
L 79.0272 306.58385 
L 86.1696 305.306081 
L 93.312 303.312305 
L 100.4544 300.502261 
L 107.5968 296.803756 
L 114.7392 292.170793 
L 121.8816 286.581698 
L 129.024 280.03725 
L 136.1664 272.558812 
L 143.3088 264.186455 
L 150.4512 254.977093 
L 157.5936 245.002607 
L 164.736 234.347977 
L 171.8784 223.109407 
L 179.0208 211.392459 
L 186.1632 199.310179 
L 193.3056 186.981226 
L 200.448 174.528 
L 207.5904 162.074774 
L 214.7328 149.745821 
L 221.8752 137.663541 
L 229.0176 125.946593 
L 236.16 114.708023 
L 243.3024 104.053393 
L 250.4448 94.078907 
L 257.5872 84.869545 
L 264.7296 76.497188 
L 271.872 69.01875 
L 279.0144 62.474302 
L 286.1568 56.885207 
L 293.2992 52.252244 
L 300.4416 48.553739 
L 307.584 45.743695 
L 314.7264 43.749919 
L 321.8688 42.47215 
L 329.0112 41.780191 
L 336.1536 41.512036 
L 343.296 41.472 
" style="fill:none;stroke:#0000ff;stroke-dasharray:7.4,3.2;stroke-dashoffset:0;stroke-width:2;"/>
   </g>
   <g id="line2d_17">
    <path clip-path="url(#p4fbae61f7c)" d="M 57.6 307.584 
L 64.7424 307.490302 
L 71.8848 306.872265 
L 79.0272 305.306081 
L 86.1696 302.470444 
L 93.312 298.138667 
L 100.4544 292.170793 
L 107.5968 284.505716 
L 114.7392 275.153292 
L 121.8816 264.186455 
L 129.024 251.733333 
L 136.1664 237.969364 
L 143.3088 223.109407 
L 150.4512 207.399863 
L 157.5936 191.110786 
L 164.736 174.528 
L 171.8784 157.945214 
L 179.0208 141.656137 
L 186.1632 125.946593 
L 193.3056 111.086636 
L 200.448 97.322667 
L 207.5904 84.869545 
L 214.7328 73.902708 
L 221.8752 64.550284 
L 229.0176 56.885207 
L 236.16 50.917333 
L 243.3024 46.585556 
L 250.4448 43.749919 
L 257.5872 42.183735 
L 264.7296 41.565698 
L 271.872 41.472 
" style="fill:none;stroke:#ffa500;stroke-dasharray:12.8,3.2,2,3.2;stroke-dashoffset:0;stroke-width:2;"/>
   </g>
   <g id="patch_3">
    <path d="M 57.6 307.584 
L 57.6 41.472 
" style="fill:none;stroke:#000000;stroke-linecap:square;stroke-linejoin:miter;stroke-width:0.8;"/>
   </g>
   <g id="patch_4">
    <path d="M 414.72 307.584 
L 414.72 41.472 
" style="fill:none;stroke:#000000;stroke-linecap:square;stroke-linejoin:miter;stroke-width:0.8;"/>
   </g>
   <g id="patch_5">
    <path d="M 57.6 307.584 
L 414.72 307.584 
" style="fill:none;stroke:#000000;stroke-linecap:square;stroke-linejoin:miter;stroke-width:0.8;"/>
   </g>
   <g id="patch_6">
    <path d="M 57.6 41.472 
L 414.72 41.472 
" style="fill:none;stroke:#000000;stroke-linecap:square;stroke-linejoin:miter;stroke-width:0.8;"/>
   </g>
   <g id="text_17">
    <!-- 横向位移 -->
    <g transform="translate(216.16 35.472)scale(0.1 -0.1)">
     <defs>
      <path d="M 7.03125 62.890625 
L 17.578125 62.890625 
L 17.578125 80.859375 
L 25 80.859375 
L 25 62.890625 
L 35.15625 62.890625 
L 35.15625 55.46875 
L 25 55.46875 
L 25 50.390625 
Q 31.25 41.40625 35.9375 33.203125 
L 30.859375 25.78125 
Q 28.125 33.203125 25 39.0625 
L 25 -8.984375 
L 17.578125 -8.984375 
L 17.578125 32.03125 
Q 14.453125 21.484375 9.375 12.109375 
L 3.90625 17.578125 
Q 13.671875 34.375 16.796875 55.46875 
L 7.03125 55.46875 
z
M 39.84375 72.265625 
L 50.78125 72.265625 
L 50.78125 80.859375 
L 58.203125 80.859375 
L 58.203125 72.265625 
L 73.046875 72.265625 
L 73.046875 80.859375 
L 80.46875 80.859375 
L 80.46875 72.265625 
L 91.40625 72.265625 
L 91.40625 65.625 
L 80.46875 65.625 
L 80.46875 56.640625 
L 94.53125 56.640625 
L 94.53125 50 
L 68.75 50 
L 68.75 43.75 
L 89.453125 43.75 
L 89.453125 7.421875 
L 41.015625 7.421875 
L 41.015625 43.75 
L 61.71875 43.75 
L 61.71875 50 
L 36.328125 50 
L 36.328125 56.640625 
L 50.78125 56.640625 
L 50.78125 65.625 
L 39.84375 65.625 
z
M 58.203125 56.640625 
L 73.046875 56.640625 
L 73.046875 65.625 
L 58.203125 65.625 
z
M 48.046875 28.515625 
L 61.71875 28.515625 
L 61.71875 37.109375 
L 48.046875 37.109375 
z
M 68.75 37.109375 
L 68.75 28.515625 
L 82.03125 28.515625 
L 82.03125 37.109375 
z
M 48.046875 14.0625 
L 61.71875 14.0625 
L 61.71875 22.265625 
L 48.046875 22.265625 
z
M 68.75 22.265625 
L 68.75 14.0625 
L 82.03125 14.0625 
L 82.03125 22.265625 
z
M 54.296875 5.46875 
L 59.375 0 
Q 52.34375 -5.078125 37.890625 -8.984375 
L 34.765625 -1.953125 
Q 46.09375 0.390625 54.296875 5.46875 
z
M 75 5.46875 
Q 84.765625 2.734375 94.140625 -2.734375 
L 89.84375 -9.765625 
Q 80.46875 -3.125 70.703125 0 
z
" id="WenQuanYiMicroHei-27178"/>
      <path d="M 39.84375 81.25 
L 49.21875 78.515625 
Q 46.875 73.4375 42.578125 67.1875 
L 89.0625 67.1875 
L 89.0625 1.171875 
Q 89.0625 -3.515625 86.328125 -6.046875 
Q 83.59375 -8.59375 78.515625 -8.59375 
Q 73.4375 -8.59375 66.796875 -7.421875 
L 65.234375 0.390625 
Q 73.828125 -0.78125 78.125 -0.78125 
Q 80.859375 -0.78125 80.859375 3.125 
L 80.859375 59.765625 
L 19.140625 59.765625 
L 19.140625 -8.984375 
L 10.9375 -8.984375 
L 10.9375 67.1875 
L 33.203125 67.1875 
Q 37.109375 73.046875 39.84375 81.25 
z
M 30.46875 46.875 
L 69.140625 46.875 
L 69.140625 13.28125 
L 30.46875 13.28125 
z
M 37.890625 20.3125 
L 62.109375 20.3125 
L 62.109375 39.84375 
L 37.890625 39.84375 
z
" id="WenQuanYiMicroHei-21521"/>
      <path d="M 27.734375 80.859375 
L 35.546875 78.515625 
Q 31.25 67.1875 25.390625 56.25 
L 25.390625 -8.984375 
L 17.578125 -8.984375 
L 17.578125 43.75 
Q 12.890625 37.5 7.8125 32.03125 
L 3.90625 39.84375 
Q 20.703125 59.375 27.734375 80.859375 
z
M 33.984375 64.0625 
L 58.984375 64.0625 
Q 56.640625 71.875 53.125 78.515625 
L 61.328125 81.25 
Q 65.234375 73.4375 67.578125 64.0625 
L 92.1875 64.0625 
L 92.1875 56.640625 
L 33.984375 56.640625 
z
M 78.515625 53.125 
L 87.5 50.390625 
Q 80.46875 22.65625 73.046875 2.34375 
L 94.921875 2.34375 
L 94.921875 -5.078125 
L 30.859375 -5.078125 
L 30.859375 2.34375 
L 64.453125 2.34375 
Q 72.65625 26.5625 78.515625 53.125 
z
M 47.265625 51.171875 
Q 53.515625 30.46875 55.46875 9.375 
L 46.875 7.03125 
Q 44.921875 29.296875 38.671875 48.828125 
z
" id="WenQuanYiMicroHei-20301"/>
      <path d="M 5.078125 54.6875 
L 20.3125 54.6875 
L 20.3125 67.578125 
Q 14.453125 66.015625 8.203125 64.84375 
L 5.46875 71.875 
Q 23.046875 75 37.5 81.25 
L 41.015625 74.609375 
L 27.734375 69.921875 
L 27.734375 54.6875 
L 41.796875 54.6875 
L 41.796875 47.65625 
L 27.734375 47.65625 
L 27.734375 45.703125 
Q 35.546875 37.5 41.40625 29.296875 
L 36.328125 22.265625 
Q 32.03125 29.6875 27.734375 35.546875 
L 27.734375 -8.984375 
L 20.3125 -8.984375 
L 20.3125 30.078125 
Q 15.625 18.359375 8.203125 8.59375 
L 2.734375 15.234375 
Q 13.671875 29.296875 19.140625 47.65625 
L 5.078125 47.65625 
z
M 63.28125 80.859375 
L 71.09375 79.296875 
Q 69.140625 75.78125 66.40625 72.265625 
L 90.234375 72.265625 
L 90.234375 65.234375 
Q 79.296875 41.40625 40.234375 33.984375 
L 37.109375 41.796875 
Q 71.875 46.875 81.640625 65.234375 
L 59.375 65.234375 
Q 57.421875 63.28125 55.46875 62.109375 
Q 58.984375 58.984375 62.5 55.46875 
L 57.421875 50 
Q 53.90625 53.90625 49.609375 57.8125 
L 42.96875 54.296875 
L 37.890625 59.765625 
Q 55.078125 68.75 63.28125 80.859375 
z
M 67.1875 41.796875 
L 73.828125 38.28125 
Q 72.265625 36.328125 70.3125 34.375 
L 92.578125 34.375 
L 92.578125 27.34375 
Q 80.46875 -0.390625 37.5 -9.375 
L 33.984375 -1.5625 
Q 74.21875 5.078125 84.375 27.34375 
L 63.28125 27.34375 
Q 61.328125 25.390625 58.984375 23.4375 
Q 62.890625 20.3125 66.796875 16.015625 
L 61.328125 10.546875 
Q 57.421875 14.84375 52.734375 18.75 
L 42.578125 12.5 
L 38.28125 19.140625 
Q 54.6875 27.34375 67.1875 41.796875 
z
" id="WenQuanYiMicroHei-31227"/>
     </defs>
     <use xlink:href="#WenQuanYiMicroHei-27178"/>
     <use x="100" xlink:href="#WenQuanYiMicroHei-21521"/>
     <use x="200" xlink:href="#WenQuanYiMicroHei-20301"/>
     <use x="300" xlink:href="#WenQuanYiMicroHei-31227"/>
    </g>
   </g>
   <g id="legend_1">
    <g id="patch_7">
     <path d="M 64.6 93.506375 
L 133.364062 93.506375 
Q 135.364062 93.506375 135.364062 91.506375 
L 135.364062 48.472 
Q 135.364062 46.472 133.364062 46.472 
L 64.6 46.472 
Q 62.6 46.472 62.6 48.472 
L 62.6 91.506375 
Q 62.6 93.506375 64.6 93.506375 
z
" style="fill:#ffffff;opacity:0.8;stroke:#cccccc;stroke-linejoin:miter;"/>
    </g>
    <g id="line2d_18">
     <path d="M 66.6 54.570438 
L 86.6 54.570438 
" style="fill:none;stroke:#000000;stroke-linecap:square;stroke-width:2;"/>
    </g>
    <g id="line2d_19"/>
    <g id="text_18">
     <!-- x=50m -->
     <g transform="translate(94.6 58.070438)scale(0.1 -0.1)">
      <defs>
       <path d="M 54.890625 54.6875 
L 35.109375 28.078125 
L 55.90625 0 
L 45.3125 0 
L 29.390625 21.484375 
L 13.484375 0 
L 2.875 0 
L 24.125 28.609375 
L 4.6875 54.6875 
L 15.28125 54.6875 
L 29.78125 35.203125 
L 44.28125 54.6875 
z
" id="DejaVuSans-120"/>
       <path d="M 10.59375 45.40625 
L 73.1875 45.40625 
L 73.1875 37.203125 
L 10.59375 37.203125 
z
M 10.59375 25.484375 
L 73.1875 25.484375 
L 73.1875 17.1875 
L 10.59375 17.1875 
z
" id="DejaVuSans-61"/>
      </defs>
      <use xlink:href="#DejaVuSans-120"/>
      <use x="59.179688" xlink:href="#DejaVuSans-61"/>
      <use x="142.96875" xlink:href="#DejaVuSans-53"/>
      <use x="206.591797" xlink:href="#DejaVuSans-48"/>
      <use x="270.214844" xlink:href="#DejaVuSans-109"/>
     </g>
    </g>
    <g id="line2d_20">
     <path d="M 66.6 69.248563 
L 86.6 69.248563 
" style="fill:none;stroke:#0000ff;stroke-dasharray:7.4,3.2;stroke-dashoffset:0;stroke-width:2;"/>
    </g>
    <g id="line2d_21"/>
    <g id="text_19">
     <!-- x=40m -->
     <g transform="translate(94.6 72.748563)scale(0.1 -0.1)">
      <use xlink:href="#DejaVuSans-120"/>
      <use x="59.179688" xlink:href="#DejaVuSans-61"/>
      <use x="142.96875" xlink:href="#DejaVuSans-52"/>
      <use x="206.591797" xlink:href="#DejaVuSans-48"/>
      <use x="270.214844" xlink:href="#DejaVuSans-109"/>
     </g>
    </g>
    <g id="line2d_22">
     <path d="M 66.6 83.926688 
L 86.6 83.926688 
" style="fill:none;stroke:#ffa500;stroke-dasharray:12.8,3.2,2,3.2;stroke-dashoffset:0;stroke-width:2;"/>
    </g>
    <g id="line2d_23"/>
    <g id="text_20">
     <!-- x=30m -->
     <g transform="translate(94.6 87.426688)scale(0.1 -0.1)">
      <use xlink:href="#DejaVuSans-120"/>
      <use x="59.179688" xlink:href="#DejaVuSans-61"/>
      <use x="142.96875" xlink:href="#DejaVuSans-51"/>
      <use x="206.591797" xlink:href="#DejaVuSans-48"/>
      <use x="270.214844" xlink:href="#DejaVuSans-109"/>
     </g>
    </g>
   </g>
  </g>
 </g>
 <defs>
  <clipPath id="p4fbae61f7c">
   <rect height="266.112" width="357.12" x="57.6" y="41.472"/>
  </clipPath>
 </defs>
</svg>
